<?xml version="1.0" standalone="no"?>
<!DOCTYPE svg PUBLIC "-//W3C//DTD SVG 1.1//EN" "http://www.w3.org/Graphics/SVG/1.1/DTD/svg11.dtd" >
<svg xmlns="http://www.w3.org/2000/svg">
<metadata>Generated by IcoMoon</metadata>
<defs>
<font id="yamuor" horiz-adv-x="1024">
<font-face units-per-em="1024" ascent="960" descent="-64" />
<missing-glyph horiz-adv-x="1024" />
<glyph unicode="&#x20;" horiz-adv-x="512" d="" />
<glyph unicode="&#xe900;" glyph-name="trash-circle-fill" d="M749.417 663.016h-122.188v47.065c-0.495 30.861-25.629 55.689-56.561 55.689-0.599 0-1.196-0.009-1.791-0.028l0.087 0.002h-120.83c-0.508 0.016-1.105 0.026-1.704 0.026-30.933 0-56.066-24.828-56.561-55.642l-0.001-0.046v-47.065h-124.45c-0.459 0.036-0.994 0.057-1.534 0.057-11.497 0-20.817-9.32-20.817-20.817s9.32-20.817 20.817-20.817c0.54 0 1.075 0.021 1.604 0.061l-0.070-0.004h36.769l17.989-418.606c0.566-26.18 21.923-47.187 48.186-47.187 0.322 0 0.643 0.003 0.964 0.009l-0.048-0.001h275.601c0.272-0.006 0.594-0.009 0.916-0.009 26.263 0 47.62 21.007 48.185 47.134l0.001 0.053 20.138 418.606h35.299c11.497 0 20.817 9.32 20.817 20.817s-9.32 20.817-20.817 20.817v0zM429.919 701.709c0.44 17.279 14.551 31.118 31.895 31.118 0.202 0 0.404-0.002 0.606-0.006h92.29c0.171 0.003 0.373 0.005 0.575 0.005 17.344 0 31.455-13.839 31.894-31.077l0.001-0.041v-38.806h-157.26zM604.037 209.904h-0.792c-10.788 0.19-19.461 8.98-19.461 19.796 0 0.081 0 0.161 0.001 0.241v-0.012l12.106 334.093c0.718 10.473 9.389 18.696 19.981 18.696 0.374 0 0.745-0.010 1.114-0.030l-0.051 0.002c10.776-0.126 19.462-8.891 19.462-19.685 0-0.12-0.001-0.239-0.003-0.359v0.018l-12.106-334.093c-0.672-10.45-9.313-18.671-19.873-18.671-0.133 0-0.266 0.001-0.398 0.004h0.020zM507.984 209.904c-0.102-0.002-0.223-0.003-0.344-0.003-10.839 0-19.655 8.66-19.907 19.439v334.116c0 11.185 9.067 20.251 20.251 20.251s20.251-9.067 20.251-20.251v0-334.206c-0.252-10.802-9.068-19.462-19.907-19.462-0.121 0-0.242 0.001-0.363 0.003h0.018zM411.139 209.904c-0.142-0.004-0.31-0.006-0.478-0.006-10.579 0-19.219 8.296-19.771 18.737l-0.002 0.049-12.219 333.979c-0.007 0.202-0.011 0.44-0.011 0.679 0 11.191 9.072 20.263 20.263 20.263 10.952 0 19.875-8.689 20.251-19.55l0.001-0.034 12.219-333.979c0.002-0.101 0.003-0.22 0.003-0.34 0-10.833-8.751-19.623-19.57-19.685h-0.685zM1024 447.491c-0.258-282.606-229.414-511.604-512.056-511.604-282.801 0-512.057 229.256-512.057 512.057s229.256 512.057 512.057 512.057c0.040 0 0.079 0 0.119 0h-0.006c282.739 0 511.943-229.205 511.943-511.943 0-0.040 0-0.080 0-0.12v0.007z" />
<glyph unicode="&#xe901;" glyph-name="trash-circle" d="M511.948-63.896c-282.741 0-511.948 229.207-511.948 511.948s229.207 511.948 511.948 511.948c282.741 0 511.948-229.207 511.948-511.948v0c-0.356-282.597-229.35-511.591-511.913-511.948h-0.035zM511.948 881.641c-239.522 0-433.693-194.171-433.693-433.693s194.171-433.693 433.693-433.693c239.522 0 433.693 194.171 433.693 433.693 0 0.037 0 0.073 0 0.11v-0.006c-0.357 239.358-194.328 433.292-433.665 433.588h-0.028zM735.22 646.563h-112.942v43.463c-0.459 28.498-23.669 51.424-52.233 51.424-0.517 0-1.031-0.007-1.544-0.022l0.075 0.002h-111.584c-0.469 0.015-1.020 0.024-1.574 0.024-28.566 0-51.776-22.928-52.233-51.385l-0.001-0.043v-43.463h-114.927c-0.424 0.033-0.918 0.052-1.416 0.052-10.617 0-19.224-8.607-19.224-19.224s8.607-19.224 19.224-19.224c0.498 0 0.992 0.019 1.481 0.056l-0.065-0.004h33.956l16.508-386.573c0.58-24.189 20.326-43.576 44.601-43.576 0.298 0 0.596 0.003 0.892 0.009l-0.044-0.001h254.616c0.252-0.005 0.548-0.008 0.846-0.008 24.253 0 43.976 19.399 44.498 43.527l0.001 0.049 18.597 386.573h32.597c10.617 0 19.224 8.607 19.224 19.224s-8.607 19.224-19.224 19.224v0zM440.484 682.294c0.408 15.955 13.439 28.733 29.454 28.733 0.077 0 0.153 0 0.23-0.001h85.347c0.158 0.003 0.345 0.005 0.531 0.005 16.017 0 29.048-12.78 29.453-28.699l0.001-0.038v-35.732h-145.017zM600.964 228.124h-0.731c-9.951 0.116-17.973 8.211-17.973 18.178 0 0.111 0.001 0.221 0.003 0.331v-0.017l11.179 308.527c0.663 9.671 8.671 17.265 18.452 17.265 0.345 0 0.688-0.009 1.028-0.028l-0.047 0.002c9.951-0.116 17.973-8.211 17.973-18.178 0-0.111-0.001-0.221-0.003-0.331v0.017l-11.179-308.527c-0.621-9.65-8.6-17.242-18.353-17.242-0.123 0-0.245 0.001-0.367 0.004h0.018zM512.261 228.124c-0.095-0.002-0.206-0.003-0.318-0.003-10.010 0-18.151 7.998-18.383 17.952v308.549c0 10.329 8.373 18.702 18.702 18.702s18.702-8.373 18.702-18.702v0-308.631c-0.228-9.979-8.371-17.981-18.384-17.981-0.222 0-0.443 0.004-0.663 0.012l0.032-0.001zM422.827 228.124c-0.132-0.003-0.286-0.005-0.442-0.005-9.769 0-17.749 7.661-18.258 17.304l-0.002 0.045-11.284 308.422c-0.007 0.187-0.011 0.406-0.011 0.627 0 10.335 8.378 18.712 18.712 18.712 10.114 0 18.354-8.024 18.701-18.054l0.001-0.032 11.284-308.422c-0.059-9.959-8.116-18.016-18.069-18.075h-0.633z" />
<glyph unicode="&#xe902;" glyph-name="trash" horiz-adv-x="901" d="M596.987 72.893h-1.057c-15.813 0.538-28.428 13.487-28.428 29.381 0 0.377 0.007 0.753 0.021 1.127l-0.002-0.054 17.734 507.532c1.080 15.408 13.844 27.498 29.432 27.498 16.292 0 29.5-13.207 29.5-29.5 0-0.040 0-0.079 0-0.119v0.006l-17.768-507.532c-0.604-15.778-13.541-28.34-29.411-28.34-0.007 0-0.014 0-0.021 0h0.001zM455.967 72.893c-15.755 1.050-28.137 14.088-28.137 30.017 0 0.118 0.001 0.236 0.002 0.353v-0.018 505.861c-0.001 0.090-0.002 0.196-0.002 0.302 0 15.929 12.382 28.966 28.046 30.012l0.091 0.005c0.375 0.017 0.816 0.027 1.258 0.027 15.803 0 28.701-12.441 29.433-28.063l0.002-0.066c0-0.443 0-0.921 0-1.364v-507.805c0-0.010 0-0.022 0-0.034 0-16.255-13.177-29.432-29.432-29.432v0zM316.142 72.893c-0.016 0-0.035 0-0.054 0-15.871 0-28.808 12.562-29.41 28.286l-0.002 0.055-17.598 507.498c-0.043 0.599-0.068 1.297-0.068 2.002 0 16.292 13.207 29.5 29.5 29.5 16.253 0 29.436-13.143 29.5-29.381v-0.006l17.734-507.567c0.010-0.288 0.016-0.627 0.016-0.967 0-15.96-12.704-28.954-28.552-29.419l-0.043-0.001h-1.023zM864.121 787.503h-209.090v78.848c-0.068 51.77-44.574 93.649-99.651 93.649h-206.737c-54.975 0-99.685-41.879-99.685-93.547v-79.053h-211.784c-20.462 0-37.173-15.79-37.173-35.059s16.609-34.752 37.105-34.752v0l62.921 0.477 30.693-703.049c0-43.619 37.514-79.018 84.1-79.018h470.666c46.415 0 84.1 35.4 84.1 79.018l34.274 702.538h60.364c20.462 0 37.105 15.62 37.105 34.786s-16.711 35.161-37.207 35.161zM318.12 852.3c0 28.784 24.896 52.145 55.589 52.145h158.003c30.693 0 55.555-23.361 55.555-52.145v-64.797h-269.011zM655.747 0.013h-414.941c-0.017 0-0.037 0-0.056 0-25.553 0-46.418 20.074-47.684 45.313l-0.005 0.113-32.569 667.547h571.204l-28.238-666.968c-1.036-25.549-21.999-45.87-47.708-45.87-0.001 0-0.002 0-0.003 0v0z" />
<glyph unicode="&#xe903;" glyph-name="square-stack-fill" horiz-adv-x="758" d="M649.829-64h-541.773c-59.678 0-108.057 48.379-108.057 108.057v0 553.069c0 0.026 0 0.057 0 0.088 0 59.63 48.339 107.969 107.969 107.969 0.031 0 0.062 0 0.092 0h541.768c0.026 0 0.057 0 0.088 0 59.63 0 107.969-48.339 107.969-107.969 0-0.031 0-0.062 0-0.092v0.005-553.069c0-59.678-48.379-108.057-108.057-108.057v0zM631.265 838.458h-499.128c-27.238-0.050-49.3-22.142-49.3-49.387 0 0 0 0 0 0v0-14.186h597.727v14.186c0 0 0 0 0 0 0 27.245-22.062 49.337-49.295 49.387h-0.005zM565.853 960h-362.962c-25.293 0-45.797-20.504-45.797-45.797v0-13.135h454.557v13.135c0 25.293-20.504 45.797-45.797 45.797v0z" />
<glyph unicode="&#xe904;" glyph-name="square-stack" horiz-adv-x="758" d="M649.829-64h-541.773c-59.678 0-108.057 48.379-108.057 108.057v0 553.069c0 0.026 0 0.057 0 0.088 0 59.63 48.339 107.969 107.969 107.969 0.031 0 0.062 0 0.092 0h541.768c0.026 0 0.057 0 0.088 0 59.63 0 107.969-48.339 107.969-107.969 0-0.031 0-0.062 0-0.092v0.005-553.069c0-59.678-48.379-108.057-108.057-108.057v0zM631.265 838.458h-499.128c-27.238-0.050-49.3-22.142-49.3-49.387 0 0 0 0 0 0v0-14.186h597.727v14.186c0 0 0 0 0 0 0 27.245-22.062 49.337-49.295 49.387h-0.005zM565.853 960h-362.962c-25.293 0-45.797-20.504-45.797-45.797v0-13.135h454.557v13.135c0 25.293-20.504 45.797-45.797 45.797v0zM704.208 41.167v555.345c0 26.647-21.602 48.249-48.249 48.249v0h-555.345c-26.572-0.1-48.074-21.663-48.074-48.249 0 0 0 0 0 0v0-555.345c0-26.647 21.602-48.249 48.249-48.249h555.17c0.026 0 0.057 0 0.088 0 26.599 0 48.161 21.563 48.161 48.161 0 0.031 0 0.062 0 0.092v-0.005z" />
<glyph unicode="&#xe905;" glyph-name="search" d="M1006.598 37.428l-256.304 256.277c51.817 68.665 82.993 155.439 82.993 249.494 0 230.034-186.479 416.513-416.513 416.513s-416.513-186.479-416.513-416.513c0-230.034 186.479-416.513 416.513-416.513 94.055 0 180.829 31.175 250.552 83.757l-1.058-0.764 256.304-256.277c10.752-10.752 25.606-17.402 42.013-17.402 32.814 0 59.415 26.601 59.415 59.415 0 16.407-6.65 31.261-17.402 42.013v0zM92.027 543.328c0 0.008 0 0.017 0 0.026 0 179.296 145.348 324.644 324.644 324.644s324.644-145.348 324.644-324.644c0-179.296-145.348-324.644-324.644-324.644v0c-179.287 0-324.629 145.333-324.644 324.616v0.002z" />
<glyph unicode="&#xe906;" glyph-name="rectangle-stack-fill" horiz-adv-x="953" d="M831.509-64h-710.374c-66.904 0.013-121.136 54.253-121.136 121.159v0 526.863c0 66.906 54.231 121.145 121.134 121.159h710.375c66.901 0 121.136-54.234 121.136-121.136 0-0.008 0-0.016 0-0.024v0.001-526.863c0-0.007 0-0.015 0-0.023 0-66.901-54.234-121.136-121.136-121.136v0zM800.126 838.427h-640.4c-30.52 0-55.26-24.741-55.26-55.26v0-8.197h750.99v8.128c0 0.020 0 0.045 0 0.069 0 30.52-24.741 55.26-55.26 55.26-0.024 0-0.049 0-0.073 0h0.004zM717.511 960h-468.839c-28.305-0.052-51.231-23.010-51.231-51.323 0 0 0 0 0 0v0-7.598h571.394v7.598c0 28.345-22.978 51.323-51.323 51.323v0z" />
<glyph unicode="&#xe907;" glyph-name="rectangle-stack" horiz-adv-x="991" d="M866.93-64h-743.179c-0.050 0-0.108 0-0.167 0-68.254 0-123.585 55.331-123.585 123.585 0 0 0 0 0 0v0 522.062c0 68.208 55.293 123.501 123.501 123.501v0h743.179c68.225 0 123.537-55.283 123.585-123.497v-522.067c0 0 0 0 0 0 0-68.166-55.188-123.442-123.321-123.584h-0.014zM833.028 838.419h-668.026c-0.025 0-0.054 0-0.084 0-31.129 0-56.365-25.235-56.365-56.365 0-0.029 0-0.059 0-0.088v0.005-7.098h780.922v7.098c0 31.175-25.273 56.448-56.448 56.448v0zM747.020 960h-489.412c-28.916 0-52.357-23.441-52.357-52.357v0-6.597h594.125v6.597c0 28.916-23.441 52.357-52.357 52.357v0zM920.373 48.061v541.518c0 30.484-24.712 55.196-55.196 55.196h-741.592c-30.484 0-55.196-24.712-55.196-55.196v0-541.518c0-30.484 24.712-55.196 55.196-55.196v0h741.592c30.484 0 55.196 24.712 55.196 55.196v0z" />
<glyph unicode="&#xe908;" glyph-name="rectangle-paperclip" horiz-adv-x="1249" d="M1179.497 422.028v-346.083c0-0.008 0-0.017 0-0.026 0-77.275-62.644-139.92-139.92-139.92-0.009 0-0.018 0-0.027 0h-899.606c-0.008 0-0.017 0-0.026 0-77.275 0-139.92 62.644-139.92 139.92 0 0.009 0 0.018 0 0.027v-0.001 631.617c0 0.008 0 0.017 0 0.026 0 77.275 62.644 139.92 139.92 139.92 0.009 0 0.018 0 0.027 0h637.72l-81.873-84.759h-546.91c-0.008 0-0.017 0-0.026 0-36.233 0-65.606-29.373-65.606-65.606 0-0.009 0-0.018 0-0.027v0.001-612.898c0-36.247 29.384-65.631 65.631-65.631v0h881.527c36.247 0 65.631 29.384 65.631 65.631v0 251.365zM963.451 915.999l-267.837-267.939c-36.317-38.316-58.65-90.202-58.65-147.305 0-118.36 95.95-214.31 214.31-214.31 57.071 0 108.931 22.308 147.337 58.68l-0.098-0.092 244.163 244.112c4.095 4.095 6.627 9.751 6.627 15.999s-2.533 11.905-6.627 15.999v0c-4.090 4.093-9.743 6.625-15.986 6.625s-11.896-2.532-15.986-6.625l-244.138-244.189c-30.391-29.41-71.858-47.535-117.559-47.535-93.41 0-169.134 75.724-169.134 169.134 0 45.701 18.125 87.168 47.58 117.605l-0.044-0.046 267.964 267.888c19.037 19.043 45.339 30.821 74.392 30.821 28.322 0 54.030-11.193 72.941-29.398l-0.033 0.032c42.52-40.86 41.728-109.99 0-151.692l-257.928-257.928c-15.731-15.731-41.345-17.187-57.791-2.222-8.338 7.588-13.551 18.484-13.551 30.598 0 11.407 4.622 21.734 12.096 29.211l236.4 236.349c4.095 4.095 6.627 9.751 6.627 15.999s-2.533 11.905-6.627 15.999v0c-4.090 4.093-9.743 6.625-15.986 6.625s-11.896-2.532-15.986-6.625l-236.375-236.4c-15.207-15.578-24.588-36.902-24.588-60.417 0-47.784 38.737-86.521 86.521-86.521 23.528 0 44.862 9.391 60.459 24.63l-0.017-0.016 258.618 258.643c58.455 58.455 60.677 153.608 2.988 212.855-27.347 28.056-65.508 45.458-107.733 45.458-41.532 0-79.131-16.835-106.347-44.053v0z" />
<glyph unicode="&#xe909;" glyph-name="plus" horiz-adv-x="1006" d="M952.989 503.491h-396.192v402.914c0 29.589-23.978 53.577-53.563 53.594h-0.002c-29.599 0-53.594-23.995-53.594-53.594v0-402.914h-396.282c-29.467 0-53.355-23.888-53.355-53.355v0-0.448c0-29.467 23.888-53.355 53.355-53.355v0h396.282v-406.738c0-29.599 23.995-53.594 53.594-53.594v0c29.587 0.017 53.565 24.006 53.565 53.594v0 406.738h396.192c29.467 0 53.355 23.888 53.355 53.355v0 0.448c0 0.009 0 0.019 0 0.030 0 29.451-23.875 53.326-53.326 53.326-0.011 0-0.021 0-0.032 0h0.002z" />
<glyph unicode="&#xe90a;" glyph-name="play-fill" horiz-adv-x="919" d="M106.579 950.8l775.277-440.232c22.087-12.486 36.753-35.814 36.753-62.567s-14.666-50.081-36.397-62.382l-0.356-0.186-775.277-440.271c-10.055-5.71-22.089-9.076-34.908-9.076-39.583 0-71.671 32.088-71.671 71.671 0 0.024 0 0.048 0 0.072v-0.004l0.657 438.261-0.657 442.049c0 0.020 0 0.044 0 0.068 0 39.583 32.088 71.671 71.671 71.671 12.819 0 24.852-3.366 35.264-9.261l-0.356 0.186z" />
<glyph unicode="&#xe90b;" glyph-name="play-circle-fill" d="M415.351 640.084l301.928-171.476c8.6-4.862 14.31-13.945 14.31-24.362s-5.71-19.5-14.171-24.29l-0.139-0.072-301.928-171.444c-3.934-2.256-8.649-3.587-13.675-3.587-15.387 0-27.86 12.474-27.86 27.86 0 0.037 0 0.073 0 0.11v-0.006l0.224 170.709-0.224 172.147c0 0.024 0 0.053 0 0.082 0 15.405 12.488 27.892 27.892 27.892 5.012 0 9.715-1.322 13.78-3.636l-0.138 0.072zM512 960c-282.77 0-512-229.23-512-512s229.23-512 512-512c282.77 0 512 229.23 512 512v0c0 282.77-229.23 512-512 512v0z" />
<glyph unicode="&#xe90c;" glyph-name="play-circle" d="M417.738 636.698l298.768-169.681c8.51-4.811 14.16-13.799 14.16-24.107s-5.65-19.296-14.023-24.035l-0.137-0.071-298.768-169.681c-3.886-2.219-8.54-3.527-13.5-3.527-15.243 0-27.6 12.357-27.6 27.6 0 0.028 0 0.057 0 0.085v-0.004l0.253 168.891-0.253 170.377c0 0.024 0 0.052 0 0.081 0 15.243 12.357 27.6 27.6 27.6 4.96 0 9.614-1.308 13.636-3.598l-0.136 0.071zM1024 447.826c0 282.486-229.688 512.174-511.826 512.174s-512.174-229.688-512.174-512.174 229.688-511.826 512.174-511.826 511.826 229.688 511.826 511.826zM936.361 447.826c0-233.956-190.358-424.346-424.346-424.346s-424.377 190.39-424.377 424.346 190.39 424.535 424.535 424.535 424.187-190.39 424.187-424.535z" />
<glyph unicode="&#xe90d;" glyph-name="play" horiz-adv-x="937" d="M116.475-64c-21.7 0.081-41.987 6.059-59.362 16.414l0.536-0.296c-34.687 20.068-57.651 56.995-57.651 99.285 0 0.212 0.001 0.423 0.002 0.634v-0.033l0.588 394.25-0.588 397.741c-0.001 0.165-0.001 0.36-0.001 0.555 0 42.265 22.89 79.185 56.949 99.038l0.545 0.293c16.904 10.133 37.297 16.126 59.089 16.126 20.879 0 40.473-5.501 57.412-15.133l-0.575 0.301 0.353-0.196 703.282-396.094c35.72-20.024 59.465-57.643 59.465-100.809 0-43.307-23.901-81.032-59.232-100.703l-0.587-0.3-702.929-396.094c-16.498-9.4-36.246-14.952-57.288-14.981h-0.008zM116.475 857.604c-2.514-0.047-4.849-0.77-6.844-1.995l0.059 0.034c-3.957-2.174-6.594-6.314-6.594-11.070 0-0.134 0.002-0.268 0.006-0.401v0.019l0.706-397.937-0.588-394.525c-0.002-0.084-0.003-0.182-0.003-0.281 0-4.761 2.635-8.907 6.527-11.059l0.065-0.033c1.905-1.154 4.206-1.836 6.667-1.836s4.762 0.683 6.725 1.869l-0.058-0.033 702.929 396.094c4.308 2.128 7.218 6.491 7.218 11.534 0 0.081-0.001 0.163-0.002 0.244v-0.012c0.007 0.156 0.011 0.34 0.011 0.524 0 4.874-2.761 9.102-6.804 11.208l-0.070 0.033-703.399 395.858c-1.85 1.065-4.064 1.702-6.425 1.726h-0.007z" />
<glyph unicode="&#xe90e;" glyph-name="person" horiz-adv-x="979" d="M970.274 81.49c-77.557 177.112-263.588 301.873-480.748 301.873s-403.191-124.902-480.748-301.873c-29.93-68.603 20.694-145.49 95.607-145.49h770.283c74.913 0 125.642 76.887 95.607 145.49zM791.188 16.73h-596.731c-58.027 0-97.334 47.839-74.032 90.53 60.071 110.237 204.151 187.864 372.415 187.864s312.343-77.557 372.415-187.864c23.126-42.692-16.040-90.53-74.067-90.53zM492.84 960c-131.918 0-238.84-115.807-238.84-258.618s106.923-258.618 238.84-258.618 238.805 115.772 238.805 258.618-106.923 258.618-238.805 258.618zM491.782 529.911c-82.845 0-149.826 77.557-149.826 172.741s66.981 172.564 149.861 172.564 149.791-77.381 149.791-172.564-66.981-172.741-149.826-172.741z" />
<glyph unicode="&#xe90f;" glyph-name="pencil-circle-fill" d="M1024 448c0-282.77-229.23-512-512-512s-512 229.23-512 512c0 282.77 229.23 512 512 512v0c282.77 0 512-229.23 512-512v0zM746.599 624.005v0c5.261 5.254 8.516 12.516 8.516 20.538s-3.255 15.284-8.515 20.538v0l-16.654 16.814c-5.264 5.265-12.537 8.521-20.57 8.521s-15.306-3.256-20.57-8.521v0l-37.208-37.368 57.763-57.795zM303.326 295.394l-29.728-66.553c-0.39-1.17-0.614-2.516-0.614-3.915 0-7.062 5.725-12.786 12.786-12.786 1.255 0 2.468 0.181 3.614 0.518l-0.090-0.023 71.029 25.765 318.733 318.829-56.995 56.868z" />
<glyph unicode="&#xe910;" glyph-name="pencil-circle" horiz-adv-x="1008" d="M697.923 590.872l-53.514 53.514 34.485 34.296c4.859 4.842 11.562 7.836 18.965 7.836s14.107-2.994 18.966-7.837l-0.001 0.001 15.425-15.457c4.85-4.855 7.85-11.56 7.85-18.965s-2.999-14.11-7.85-18.966v0zM618.553 618.909l-326.172-328.321-30.281-68.56c-0.42-0.944-0.664-2.046-0.664-3.204 0-2.199 0.881-4.193 2.309-5.647l0.758-0.758c1.456-1.472 3.476-2.383 5.709-2.383 1.051 0 2.055 0.202 2.975 0.569l-0.054-0.019 70.203 27.12 328.005 328.384zM504.098-62.957c-277.399 0-503.055 229.227-503.055 510.894s225.656 511.020 503.055 511.020 503.023-229.227 503.023-511.020-225.656-510.894-503.023-510.894zM504.098 872.886c-229.923 0-416.984-190.601-416.984-424.949s187.061-424.823 416.984-424.823 416.984 190.601 416.984 424.823-187.061 424.949-416.984 424.949z" />
<glyph unicode="&#xe911;" glyph-name="pencil" horiz-adv-x="1028" d="M935.409 752.804l-114.349 114.38 73.679 73.71c10.412 10.413 24.797 16.853 40.686 16.853s30.274-6.44 40.686-16.853l33.009-33.040c10.419-10.404 16.864-24.784 16.864-40.67s-6.445-30.266-16.863-40.669l-0.001-0.001zM765.762 812.705l-697.316-702.045-64.725-146.633c-0.898-2.020-1.421-4.376-1.421-6.854 0-4.697 1.878-8.955 4.923-12.065l1.636-1.636c3.116-3.148 7.437-5.098 12.214-5.098 2.229 0 4.359 0.425 6.314 1.197l-0.116-0.041 150.132 58.010 701.194 702.266z" />
<glyph unicode="&#xe912;" glyph-name="pause-fill" horiz-adv-x="775" d="M241.446-64h-167.802c-40.672 0-73.644 32.971-73.644 73.644v0 876.713c0 40.672 32.971 73.644 73.644 73.644v0h167.802c40.672 0 73.644-32.971 73.644-73.644v0-876.713c0-40.672-32.971-73.644-73.644-73.644v0zM775.422 9.644v876.713c0 40.672-32.971 73.644-73.644 73.644v0h-167.762c-0.012 0-0.026 0-0.040 0-40.672 0-73.644-32.971-73.644-73.644v0-876.713c0-40.672 32.971-73.644 73.644-73.644 0.014 0 0.028 0 0.042 0h167.76c40.672 0 73.644 32.971 73.644 73.644v0z" />
<glyph unicode="&#xe913;" glyph-name="pause-circle-fill" d="M1024 448c0-282.77-229.23-512-512-512s-512 229.23-512 512c0 282.77 229.23 512 512 512v0c282.762-0.018 511.982-229.238 512-511.998v-0.002zM458.854 291.038v313.666c0 13.859-11.235 25.093-25.093 25.093v0h-64.342c-13.859 0-25.093-11.235-25.093-25.093v0-313.666c0-13.859 11.235-25.093 25.093-25.093v0h64.342c13.859 0 25.093 11.235 25.093 25.093v0zM681.251 291.553v312.926c0 14.054-11.393 25.447-25.447 25.447-0.011 0-0.023 0-0.034 0h-67.042c-14.061 0-25.461-11.389-25.479-25.445v-312.928c0-14.072 11.407-25.479 25.479-25.479h66.98c0.029 0 0.063 0 0.097 0 14.054 0 25.447 11.393 25.447 25.447 0 0.011 0 0.023 0 0.034v-0.002z" />
<glyph unicode="&#xe914;" glyph-name="pause-circle" d="M434.734 261.66h-63.17c-15.13 0-27.396 12.266-27.396 27.396v0 323.43c0.018 15.117 12.277 27.364 27.396 27.364h63.17c15.119 0 27.378-12.247 27.396-27.362v-323.432c0-15.13-12.266-27.396-27.396-27.396v0zM684.897 288.387v324.928c0 14.743-11.952 26.695-26.695 26.695v0h-58.742c-0.009 0-0.021 0-0.032 0-14.743 0-26.695-11.952-26.695-26.695v0-324.928c0-14.761 11.966-26.727 26.727-26.727v0h58.806c14.72 0.054 26.631 11.999 26.631 26.727 0 0 0 0 0 0v0zM512.016-64c-282.337 0-512.016 229.679-512.016 511.984s229.679 512.016 512.016 512.016 511.984-229.679 511.984-512.016-229.679-511.984-511.984-511.984zM512.016 871.887c-233.757 0-423.903-190.146-423.903-423.903s190.146-423.871 423.903-423.871 423.871 190.146 423.871 423.871-190.146 423.903-423.871 423.903z" />
<glyph unicode="&#xe915;" glyph-name="pause" horiz-adv-x="521" d="M57.244-64c0 0 0 0 0 0-29.882 0-54.116 24.179-54.206 54.040v0.009l-3.038 911.564c0 0.059 0 0.128 0 0.198 0 29.89 24.175 54.133 54.038 54.245h0.208c29.881-0.022 54.111-24.183 54.246-54.036v-0.013l3.038-911.603c0-0.047 0-0.102 0-0.158 0-29.904-24.197-54.156-54.080-54.245h-0.009zM466.828-60.055c29.818 0.157 53.93 24.365 53.93 54.205 0 0.070 0 0.139 0 0.209v-0.011l-2.88 911.603c-0.134 29.865-24.365 54.026-54.244 54.048h-0.002c-29.874-0.112-54.049-24.355-54.049-54.245 0-0.070 0-0.139 0-0.208v0.011l2.998-911.564c0.112-29.874 24.356-54.048 54.245-54.048 0 0 0 0 0 0v0z" />
<glyph unicode="&#xe916;" glyph-name="paperclip" horiz-adv-x="1005" d="M537.879 893.182c96.598 89.322 253.506 89.096 349.691-0.694 94.985-88.665 93.072-235.053-2.325-323.286l-425.191-393.273c-55.416-51.253-145.262-51.271-200.659 0s-55.453 134.329 0 185.657l389.71 360.418c6.333 5.87 14.842 9.471 24.192 9.471s17.858-3.601 24.215-9.492l-0.023 0.021c7.045-6.529 11.44-15.832 11.44-26.161s-4.395-19.632-11.417-26.14l-0.023-0.021-385.753-356.667c-28.749-26.592-26.254-71.131 7.501-94.61 27.511-19.166 64.905-15.715 89.528 7.070l424.31 392.411c66.443 61.454 68.187 163.828 2.269 225.845-67.324 63.311-177.387 63.648-245.142 0.994l-439.388-406.401c-106.893-101.417-104.83-263.858 4.838-362.818 107.756-97.235 279.723-97.235 387.479 0l402.519 372.307c6.333 5.87 14.842 9.471 24.192 9.471s17.858-3.601 24.215-9.492l-0.023 0.021c7.039-6.528 11.43-15.827 11.43-26.151s-4.391-19.623-11.407-26.13l-0.023-0.021-398.487-368.463c-139.843-124.615-362.331-120.846-497.091 8.42-131.272 125.947-131.272 325.387 0 451.315l439.425 406.457z" />
<glyph unicode="&#xe917;" glyph-name="mic-fill" horiz-adv-x="687" d="M378.963 109.761c0-0.52 0-1.016 0-1.535v-101.361h216.304c19.569 0 35.433-15.864 35.433-35.433s-15.864-35.433-35.433-35.433v0h-500.284c-19.569 0-35.433 15.864-35.433 35.433s15.864 35.433 35.433 35.433v0h213.186v101.361c0 0.52 0 1.016 0 1.535-172.84 17.811-308.168 164.738-308.168 342.798v99.896c-0.008 0.268-0.012 0.584-0.012 0.9 0 18.956 15.367 34.322 34.322 34.322s34.322-15.367 34.322-34.322c0-0.317-0.004-0.632-0.013-0.947l0.001 0.046v-99.896c0-152.195 123.352-275.996 274.98-275.996s274.98 123.801 274.98 275.996v99.896c-0.008 0.268-0.012 0.584-0.012 0.9 0 18.956 15.367 34.322 34.322 34.322s34.322-15.367 34.322-34.322c0-0.317-0.004-0.632-0.013-0.947l0.001 0.046v-99.896c0-178.060-135.329-324.987-308.239-342.798zM517.976 462.953v322.672c0 96.305-78.070 174.375-174.375 174.375v0 0c-96.305 0-174.375-78.070-174.375-174.375v0-322.672c0-96.305 78.070-174.375 174.375-174.375v0 0c96.305 0 174.375 78.070 174.375 174.375v0z" />
<glyph unicode="&#xe918;" glyph-name="mic-circle-fill" d="M1024 448.028c0-0.017 0-0.037 0-0.056 0-282.785-229.243-512.028-512.028-512.028s-512.028 229.243-512.028 512.028c0 282.785 229.243 512.028 512.028 512.028v0c282.766 0 511.996-229.211 512.028-511.969v-0.003zM685.577 542.041c-10.349-0.369-18.599-8.848-18.599-19.253 0-0.222 0.004-0.443 0.011-0.663l-0.001 0.032v-56.329c0.018-0.874 0.028-1.904 0.028-2.937 0-84.556-68.546-153.101-153.101-153.101s-153.101 68.546-153.101 153.101c0 1.033 0.010 2.063 0.031 3.090l-0.002-0.154v57.343c-0.283 10.329-8.724 18.595-19.095 18.595-10.55 0-19.102-8.552-19.102-19.102 0-0.178 0.002-0.356 0.007-0.533l-0.001 0.026v-56.329c-0.001-0.268-0.002-0.584-0.002-0.901 0-99.099 74.544-180.787 170.617-192.051l0.906-0.086v-57.962h-118.685c-10.578-0.579-18.936-9.298-18.936-19.969s8.358-19.389 18.885-19.966l0.051-0.002h278.489c10.578 0.579 18.936 9.298 18.936 19.969s-8.358 19.389-18.885 19.966l-0.051 0.002h-120.374v57.962c97.006 11.324 171.58 93.025 171.58 192.144 0 0.374-0.001 0.747-0.003 1.121v-0.057 57.174c-0.219 10.47-8.759 18.873-19.26 18.873-0.12 0-0.24-0.001-0.36-0.003h0.018zM514.676 371.703c54.279 0.256 98.182 44.316 98.182 98.631 0 0.119 0 0.238-0.001 0.357v-0.018l-0.732 184.082c-0.208 54.284-44.262 98.21-98.575 98.21-54.442 0-98.576-44.134-98.576-98.576 0-0.129 0-0.257 0.001-0.386v0.020l0.732-184.082c0.16-54.289 44.207-98.237 98.519-98.237 0.020 0 0.040 0 0.060 0h-0.003z" />
<glyph unicode="&#xe919;" glyph-name="mic-circle" d="M530.451 269.485v-58.298h121.010c10.629-0.582 19.027-9.343 19.027-20.065s-8.398-19.482-18.975-20.062l-0.051-0.002h-279.828c-10.629 0.582-19.027 9.343-19.027 20.065s8.398 19.482 18.975 20.062l0.051 0.002h119.255v58.298c-97.473 11.378-172.405 93.472-172.405 193.068 0 0.376 0.001 0.751 0.003 1.126v-0.058 56.6c-0.004 0.152-0.007 0.33-0.007 0.509 0 10.601 8.593 19.194 19.194 19.194 10.421 0 18.903-8.305 19.187-18.658l0.001-0.026v-57.675c-0.018-0.878-0.028-1.913-0.028-2.951 0-84.962 68.875-153.838 153.838-153.838s153.838 68.875 153.838 153.838c0 1.037-0.010 2.073-0.031 3.105l0.002-0.155v56.6c-0.004 0.152-0.007 0.33-0.007 0.509 0 10.601 8.593 19.194 19.194 19.194 10.421 0 18.903-8.305 19.187-18.658l0.001-0.026v-57.618c0.002-0.3 0.003-0.656 0.003-1.012 0-99.596-74.932-181.69-171.496-192.982l-0.909-0.086zM608.219 469.508v182.647c0.001 0.186 0.002 0.405 0.002 0.625 0 53.985-43.587 97.79-97.49 98.142h-0.033c-53.942-0.384-97.523-44.202-97.523-98.198 0-0.2 0.001-0.4 0.002-0.599v0.031-182.704c-0.001-0.169-0.002-0.368-0.002-0.568 0-54.016 43.613-97.846 97.546-98.198h0.034c53.936 0.352 97.523 44.157 97.523 98.142 0 0.22-0.001 0.439-0.002 0.658v-0.034zM512-63.943c-282.77 0-512 229.23-512 512s229.23 512 512 512c282.77 0 512-229.23 512-512v0c-0.29-282.665-229.34-511.735-511.969-512.057h-0.031zM512 882.119c-239.726 0-434.062-194.336-434.062-434.062s194.336-434.062 434.062-434.062c239.726 0 434.062 194.336 434.062 434.062v0c-0.29 239.598-194.46 433.748-434.037 434.006h-0.025z" />
<glyph unicode="&#xe91a;" glyph-name="mic" horiz-adv-x="687" d="M343.601 288.577c96.262 0.108 174.268 78.114 174.375 174.365v322.682c0 96.305-78.070 174.375-174.375 174.375s-174.375-78.070-174.375-174.375v0-322.672c0.108-96.262 78.114-174.268 174.365-174.375h0.010zM238.744 785.625c0 57.911 46.946 104.857 104.857 104.857s104.857-46.946 104.857-104.857v0-322.672c-0.067-57.884-46.973-104.789-104.85-104.857h-0.007c-57.884 0.067-104.789 46.973-104.857 104.85v0.007zM378.963 109.761c0-0.52 0-1.016 0-1.535v-101.361h216.304c19.569 0 35.433-15.864 35.433-35.433s-15.864-35.433-35.433-35.433v0h-500.284c-19.569 0-35.433 15.864-35.433 35.433s15.864 35.433 35.433 35.433v0h213.186v101.361c0 0.52 0 1.016 0 1.535-172.84 17.811-308.168 164.738-308.168 342.798v99.896c-0.008 0.268-0.012 0.584-0.012 0.9 0 18.956 15.367 34.322 34.322 34.322s34.322-15.367 34.322-34.322c0-0.317-0.004-0.632-0.013-0.947l0.001 0.046v-99.896c0-152.195 123.352-275.996 274.98-275.996s274.98 123.801 274.98 275.996v99.896c-0.008 0.268-0.012 0.584-0.012 0.9 0 18.956 15.367 34.322 34.322 34.322s34.322-15.367 34.322-34.322c0-0.317-0.004-0.632-0.013-0.947l0.001 0.046v-99.896c0-178.060-135.329-324.987-308.239-342.798z" />
<glyph unicode="&#xe91b;" glyph-name="matpenter" horiz-adv-x="976" d="M968.138 281.043c-0.37 1.793-0.638 3.915-0.746 6.079l-0.004 0.101c-6.36 140.045 10.92 312.402-49.262 439.397-24.871 47.192-1.35 93.544-53.732 119.465-2.327 1.101-4.294 2.23-6.163 3.494l0.162-0.103c-104.014 72.243-168.367 122.285-316.452 108.124-112.414-5.28-319.932-12.961-429.947-31.621-114.994-20.281-102.364-81.393-99.754-154.086 0.044-1.629 0.184-3.184 0.416-4.708l-0.026 0.208c20.131-137.555-56.192-549.021 27.661-639.025 63.392-71.133 138.215-284.651 231.849-147.246 0.81 1.14 1.65 2.28 2.55 3.36 17.671 21.001 41.522 48.752 66.723 55.982 53.702 12.54 144.906-33.001 210.518-43.772 239.349-47.552 471.528 1.2 416.206 284.351zM945.037 138.268c-39.392-162.006-243.009-139.835-386.565-119.015-1.080 0.15-2.16 0.36-3.21 0.57-112.774 24.541-225.189 96.004-298.482-21.691-94.894-137.015-81.003 172.417-78.573 233.769 3.99 136.655 5.58 338.563 5.13 457.038 0 1.17 0 2.28 0 3.42 0 0.27 0 0.54 0 0.78 2.242 19.489 17.744 34.745 37.155 36.589l0.166 0.013c208.688 20.761 423.737 1.17 625.734 27.001 1.601 0.22 3.452 0.346 5.332 0.346 11.68 0 22.225-4.858 29.726-12.663l0.013-0.014c62.672-65.793 62.192-274.781 62.372-358.784 0-0.037 0-0.080 0-0.123 0-1.299-0.076-2.58-0.225-3.839l0.015 0.153c-7.44-78.003 15.781-157.266 1.98-240.009 0.030-1.17-0.21-2.37-0.57-3.54zM516.020 287.974q-4.77 10.74-4.77 39.362v180.007l-28.921 22.351-9.54-6.87v-94.204h23.251l-23.251-30.421v-79.923l14.311 12.811 6.27-6.84-68.313-60.002c-6.55 7.748-13.267 14.759-20.391 21.335l-0.16 0.146c-7.121 6.527-14.805 12.879-22.805 18.829l-0.775 0.551v5.070l3.15 2.22c1.726 1.244 3.232 2.464 4.666 3.761l-0.046-0.041c3.75 3.78 5.67 12 5.67 24.751v58.112h-53.102v-80.523q0-71.283-60.212-71.283-3.6 0-22.381 0.9c-3.234 0.765-6.947 1.203-10.762 1.203-0.203 0-0.406-0.001-0.609-0.004h0.031q-18.481 0-21.451-18.181h-8.58v5.28q0 22.051 8.82 32.041t30.541 12.39q20.611 2.34 29.821 12.66t9.27 30.871c0.011 0.455 0.017 0.991 0.017 1.528 0 15.051-4.819 28.976-12.997 40.317l0.14-0.204q-12.51 18.001-28.621 18.001c-7.95 0-15.301-4.2-22.081-12.54l-7.2 5.070c2.294 5.291 5.038 9.854 8.293 13.996l-0.102-0.135c3.037 3.834 6.583 7.093 10.573 9.736l0.168 0.104c4.048 2.663 8.711 4.896 13.671 6.461l0.4 0.109c5.384 1.712 11.707 3.024 18.223 3.687l0.408 0.034q0.33 31.921 7.77 51.602c5.636 13.842 14.061 25.523 24.646 34.801l0.105 0.090q6.57 5.67 13.861 11.16c4.59 3.502 9.801 7.001 15.218 10.187l0.743 0.404c3.18 2.010 9.78 5.82 19.831 11.49l40.412 22.801 5.64 3.3q17.341-9.84 23.281-19.681 5.34-9 6.84-30.721l71.583 51.572 43.232-34.591c1.59 1.59 3.84 3.78 6.72 6.57s6.51 6.15 10.89 10.14l7.74-5.67q-13.411-15.001-17.011-25.951-3.27-11.61-3.12-40.022v-136.505q0-18.181 1.8-22.651c1.17-3.18 4.77-6.36 10.74-9.54l12.060 9.69 7.17-7.77-46.772-36.811q-19.141 12.841-24.001 23.581zM325.483 290.674q6.84 10.41 6.84 42.632v125.225q0 32.491 6.57 47.402-15.211-12.24-18.781-24.151t-3.6-51.302v-81.693q0-35.191-5.67-47.732-6-13.111-24.001-20.251l9-0.45 2.67-0.15q20.221 0 27.061 10.44zM391.485 512.233q-3 7.74-16.111 16.381-22.351-13.411-28.321-25.621-5.67-11.67-5.67-44.162v-54.002l18.001 24.001h35.191v49.502q-0.12 26.701-3.12 33.871zM464.238 516.403l-28.021-20.281v-67.383h28.021zM436.217 350.586q0-26.521 3-35.161c1.742-5.106 6.497-8.713 12.094-8.713 0.368 0 0.733 0.016 1.093 0.046l-0.047-0.003c4.785 0.174 9.036 2.324 11.985 5.653l0.015 0.018v86.553h-28.021zM617.814 264.723l-4.17 5.070q42.332 48.272 90.004 55.742v9c0.011 0.507 0.018 1.105 0.018 1.704 0 19.981-7.221 38.276-19.196 52.416l0.098-0.119c-12.599 14.67-29.917 24.97-49.58 28.542l-0.522 0.079-2.1 6.27 71.283 49.202v11.010q0 48.332-35.191 48.332-11.010 0-28.321-10.44l-5.67 6.84q24.421 28.051 56.342 28.051c0.21 0.003 0.458 0.004 0.706 0.004 7.63 0 14.925-1.433 21.631-4.044l-0.406 0.139c6.649-2.54 12.321-6.284 17.008-11.007l0.003-0.003c4.651-4.832 8.383-10.587 10.889-16.959l0.122-0.352c2.568-6.463 4.056-13.951 4.056-21.788 0-0.304-0.002-0.607-0.007-0.909l0.001 0.046 20.251 14.011v36.601h9.27v-30.721l51.002 34.891q47.432-28.921 63.512-50.402t16.111-55.772v-130.595l-60.542-54.002c-9.637 4.556-21.563 9.207-33.823 13.112l-2.178 0.599c-6.96 2.19-13.291 3.93-18.931 5.22-4.189 1.048-9.295 1.936-14.503 2.478l-0.497 0.042v-73.353h-70.803v76.683c-31.899-1.115-61.386-10.512-86.657-26.089l0.764 0.438zM703.707 461.231l-38.792-26.251c14.968-7.667 27.766-17.228 38.721-28.578l0.041-0.043zM765.030 505.332l-20.251-14.611v-267.79h20.251zM862.864 447.79v5.19c0.001 0.105 0.001 0.23 0.001 0.355 0 7.119-1.377 13.916-3.88 20.139l0.129-0.363c-2.978 6.987-7.026 12.958-12.007 18.007l0.006-0.006c-6.214 6.341-13.091 11.989-20.533 16.844l-0.468 0.286c-8.561 5.735-18.571 11.542-28.945 16.725l-1.626 0.735-21.451-15.001v-64.413q21.001-15.811 42.002-15.811c17.909 0.134 34.269 6.657 46.938 17.399l-0.106-0.088zM862.864 378.607v57.842q-27.001-15.211-46.532-15.211t-42.002 13.711v-58.142c12.95 8.926 28.917 14.351 46.137 14.61l0.065 0.001q17.941 0 42.392-12.811zM862.864 366.967q-24.481 15.511-43.262 15.511t-45.302-15.511v-38.762c32.783-3.306 62.788-12.197 90.082-25.732l-1.519 0.681z" />
<glyph unicode="&#xe91c;" glyph-name="manttek" horiz-adv-x="976" d="M968.138 281.043c-0.37 1.793-0.638 3.915-0.746 6.079l-0.004 0.101c-6.36 140.045 10.92 312.402-49.262 439.397-24.871 47.192-1.35 93.544-53.732 119.465-2.327 1.101-4.294 2.23-6.163 3.494l0.162-0.103c-104.014 72.243-168.367 122.285-316.452 108.124-112.414-5.28-319.932-12.961-429.947-31.621-114.994-20.281-102.364-81.393-99.754-154.086 0.044-1.629 0.184-3.184 0.416-4.708l-0.026 0.208c20.131-137.555-56.192-549.021 27.661-639.025 63.392-71.133 138.215-284.651 231.849-147.246 0.81 1.14 1.65 2.28 2.55 3.36 17.671 21.001 41.522 48.752 66.723 55.982 53.702 12.54 144.906-33.001 210.518-43.772 239.349-47.552 471.528 1.2 416.206 284.351zM945.037 138.268c-39.392-162.006-243.009-139.835-386.565-119.015-1.080 0.15-2.16 0.36-3.21 0.57-112.774 24.541-225.189 96.004-298.482-21.691-94.894-137.015-81.003 172.417-78.573 233.769 3.99 136.655 5.58 338.563 5.13 457.038 0 1.17 0 2.28 0 3.42 0 0.27 0 0.54 0 0.78 2.242 19.489 17.744 34.745 37.155 36.589l0.166 0.013c208.688 20.761 423.737 1.17 625.734 27.001 1.601 0.22 3.452 0.346 5.332 0.346 11.68 0 22.225-4.858 29.726-12.663l0.013-0.014c62.672-65.793 62.192-274.781 62.372-358.784 0-0.037 0-0.080 0-0.123 0-1.299-0.076-2.58-0.225-3.839l0.015 0.153c-7.44-78.003 15.781-157.266 1.98-240.009 0.030-1.17-0.21-2.37-0.57-3.54zM736.709 194.49q-7.68 17.371-7.68 63.752v291.611l-46.832 36.211-15.451-11.1v-152.556h37.681l-37.681-49.262v-129.395l23.191 20.761 10.14-11.1-110.584-97.054c-10.609 12.542-21.492 23.891-33.038 34.532l-0.263 0.24c-11.528 10.583-23.964 20.868-36.917 30.497l-1.245 0.885v8.19c1.29 0.96 3 2.19 5.070 3.63 2.802 1.989 5.247 3.958 7.568 6.061l-0.068-0.061c6 6 9.18 19.471 9.18 40.082v93.694h-85.953v-130.355q0-115.415-97.534-115.415-5.82 0-36.211 1.47c-5.25 1.224-11.279 1.925-17.472 1.925-0.312 0-0.625-0.002-0.936-0.005h0.047q-30.001 0-34.771-29.461h-13.981v8.7q0 35.731 14.221 51.902t49.502 20.041q33.301 3.87 48.272 20.521t15.001 49.982q0 39.002-20.761 67.593-20.251 28.981-46.352 28.951-19.291 0-35.731-20.251l-11.58 8.19c3.746 8.577 8.196 15.972 13.461 22.697l-0.171-0.227c4.926 6.192 10.658 11.466 17.099 15.76l0.271 0.17c6.534 4.266 14.057 7.872 22.046 10.436l0.665 0.184c8.663 2.751 18.845 4.866 29.334 5.945l0.667 0.056q0.48 51.662 12.57 83.523c9.129 22.412 22.773 41.324 39.912 56.346l0.17 0.146q10.62 9.18 22.441 18.001c7.388 5.594 15.82 11.252 24.565 16.436l1.266 0.695q7.74 4.8 32.101 18.601l65.433 36.931 9.18 5.31q27.991-15.931 37.651-31.861 8.7-14.491 11.1-49.742l115.895 83.523 70.023-56.012q3.84 3.87 10.86 10.62t17.611 16.441l12.54-9.18q-21.691-24.181-27.511-42.002-5.31-18.841-5.31-64.713v-221.139q0-29.491 3-36.691 3-7.74 17.371-15.451l19.801 15.931 11.58-12.57-75.813-60.002q-30.841 20.911-38.582 38.432zM428.177 198.84q11.1 16.861 11.1 69.003v202.838q0 52.592 10.62 76.773-24.631-19.801-30.421-39.002-5.79-19.801-5.79-83.043v-132.305q0-57.002-9.18-77.253-9.66-21.241-39.002-32.821l14.461-0.72 4.35-0.24q32.701-0.12 43.922 16.771zM534.891 557.594c-3.24 8.37-12 17.221-26.101 26.551q-36.181-21.751-45.842-41.522-9.18-18.841-9.18-71.463v-87.393l28.951 38.642h57.002v80.133q0.060 43.442-4.77 55.052zM652.705 564.345l-45.392-32.821v-109.114h45.392zM607.314 295.894q0-42.962 4.83-57.002 5.31-14.011 21.241-14.011c7.705 0.322 14.54 3.794 19.296 9.152l0.025 0.028v140.045h-45.332z" />
<glyph unicode="&#xe91d;" glyph-name="maattbook" horiz-adv-x="976" d="M968.138 281.043c-0.37 1.793-0.638 3.915-0.746 6.079l-0.004 0.101c-6.36 140.045 10.92 312.402-49.262 439.397-24.871 47.192-1.35 93.544-53.732 119.465-2.327 1.101-4.294 2.23-6.163 3.494l0.162-0.103c-104.014 72.243-168.367 122.285-316.452 108.124-112.414-5.28-319.932-12.961-429.947-31.621-114.994-20.281-102.364-81.393-99.754-154.086 0.044-1.629 0.184-3.184 0.416-4.708l-0.026 0.208c20.131-137.555-56.192-549.021 27.661-639.025 63.392-71.133 138.215-284.651 231.849-147.246 0.81 1.14 1.65 2.28 2.55 3.36 17.671 21.001 41.522 48.752 66.723 55.982 53.702 12.54 144.906-33.001 210.518-43.772 239.349-47.552 471.528 1.2 416.206 284.351zM945.037 138.268c-39.392-162.006-243.009-139.835-386.565-119.015-1.080 0.15-2.16 0.36-3.21 0.57-112.774 24.541-225.189 96.004-298.482-21.691-94.894-137.015-81.003 172.417-78.573 233.769 3.99 136.655 5.58 338.563 5.13 457.038 0 1.17 0 2.28 0 3.42 0 0.27 0 0.54 0 0.78 2.242 19.489 17.744 34.745 37.155 36.589l0.166 0.013c208.688 20.761 423.737 1.17 625.734 27.001 1.601 0.22 3.452 0.346 5.332 0.346 11.68 0 22.225-4.858 29.726-12.663l0.013-0.014c62.672-65.793 62.192-274.781 62.372-358.784 0-0.037 0-0.080 0-0.123 0-1.299-0.076-2.58-0.225-3.839l0.015 0.153c-7.44-78.003 15.781-157.266 1.98-240.009 0.030-1.17-0.21-2.37-0.57-3.54zM514.19 274.803q-5.040 11.34-5.040 41.672v190.507l-30.601 23.671-10.11-7.26v-99.724h24.631l-24.631-32.221v-84.573l15.151 13.561 6.63-7.26-72.273-63.302c-6.944 8.185-14.061 15.597-21.607 22.552l-0.174 0.159c-7.535 6.934-15.66 13.659-24.127 19.95l-0.804 0.571v5.37c0.84 0.63 1.92 1.41 3.3 2.37 1.824 1.29 3.419 2.58 4.926 3.963l-0.036-0.033c3.99 3.99 6 12.75 6 26.191v61.232h-56.192v-85.203q0-75.423-63.752-75.423-3.78 0-23.671 0.93c-3.438 0.803-7.385 1.263-11.44 1.263-0.197 0-0.394-0.001-0.59-0.003h0.030q-19.531 0-22.711-19.261h-9.090v5.7q0 23.341 9.3 33.931t32.371 13.081c14.521 1.68 25.021 6.18 31.561 13.411s9.78 18.001 9.78 32.671c0.013 0.522 0.021 1.137 0.021 1.753 0 15.924-5.101 30.657-13.759 42.653l0.148-0.215q-13.231 18.961-30.301 18.931-12.6 0-23.341-13.231l-7.59 5.34c2.46 5.611 5.372 10.448 8.814 14.851l-0.113-0.15c3.224 4.038 6.965 7.483 11.163 10.298l0.177 0.112c4.315 2.808 9.288 5.164 14.572 6.815l0.429 0.115c5.708 1.828 12.409 3.225 19.315 3.925l0.426 0.035q0.030 33.751 7.98 54.452c5.962 14.652 14.878 27.016 26.080 36.836l0.111 0.095q6.93 6 14.671 11.82c4.836 3.675 10.349 7.39 16.067 10.796l0.823 0.454c3.36 2.1 10.38 6.15 21.001 12.15l42.752 24.001 6 3.45q18.301-10.41 24.631-20.821 5.67-9.45 7.26-32.521l75.663 54.872 45.752-36.601q2.52 2.52 7.11 6.93t11.52 10.74l8.22-6q-14.221-15.811-18.001-27.451-3.45-12.33-3.48-42.302v-144.456q0-19.261 1.89-24.001c1.26-3.36 5.070-6.72 11.37-10.080l12.931 10.41 7.59-8.22-49.562-39.002q-20.101 13.321-25.171 24.721zM312.522 277.653q7.26 11.010 7.26 45.002v132.695q0 34.381 6.93 50.162-16.081-12.931-19.891-25.561t-3.81-54.272v-86.493q0-37.261-6-50.492-6.3-13.891-25.561-21.481l9.48-0.45 2.82-0.18q21.511 0 28.771 11.070zM382.275 512.143c-2.1 5.49-7.8 11.25-17.041 17.371q-23.671-14.221-30.001-27.001c-3.99-8.19-6-23.791-6-46.712v-57.002l18.961 25.261h37.231v52.112q0 28.381-3.15 35.971zM459.288 516.583l-29.671-21.601v-71.313h29.671zM429.617 341.076q0-28.081 3.15-37.231c1.885-5.314 6.869-9.051 12.725-9.051 0.41 0 0.816 0.018 1.217 0.054l-0.052-0.004c5.039 0.198 9.511 2.47 12.614 5.981l0.016 0.019v91.504h-29.671zM878.764 442.090l54.272-25.891v-6c-1.676-0.89-3.122-1.886-4.44-3.026l0.030 0.025c-1.092-1-1.914-2.277-2.355-3.721l-0.016-0.059c-0.575-1.879-0.923-4.042-0.96-6.281v-0.020c0-2.64-0.15-6.18-0.15-10.59v-85.533q-72.003-8.82-121.835-51.002c-6.097 3.912-13.388 8.006-20.911 11.701l-1.35 0.599c-5.151 2.583-11.658 5.357-18.332 7.782l-1.379 0.438c-11.727 3.817-25.222 6.017-39.231 6.017-0.742 0-1.483-0.006-2.222-0.018l0.111 0.001q-30.001 0-50.492-9.78t-20.851-23.041c0.088-3.097 1.145-5.93 2.876-8.227l-0.026 0.036 3.48-5.37c1.198-1.973 1.907-4.359 1.907-6.91 0-0.239-0.006-0.477-0.019-0.713l0.001 0.033q0-12-12.33-12c-0.033 0-0.072 0-0.111 0-4.455 0-8.389 2.227-10.751 5.628l-0.028 0.043c-2.673 3.72-4.274 8.366-4.274 13.387 0 0.283 0.005 0.564 0.015 0.844l-0.001-0.041c-0.001 0.084-0.001 0.184-0.001 0.283 0 7.386 2.123 14.276 5.793 20.093l-0.092-0.156c2.785 4.064 5.684 7.62 8.849 10.92l-0.028-0.030c3.99 4.29 9 9.42 15.151 15.301q29.401 27.751 29.371 44.192c-0.038 5.314-2.339 10.083-5.985 13.397l-0.015 0.013c-3.509 3.61-8.412 5.85-13.838 5.85-0.019 0-0.037 0-0.056 0h0.003q-17.041 0-21.781-20.221h-7.74q0.93 44.822 48.302 46.412v1.89q0 19.261-8.37 29.821c-5.289 6.508-13.294 10.633-22.262 10.633-0.548 0-1.093-0.015-1.634-0.046l0.075 0.003q-19.561 0-27.001-18.631l-8.52 2.19q7.23 45.002 43.862 45.002c7.417-0.278 14.455-1.301 21.225-3l-0.705 0.15q1.26 32.851 12.63 50.822t43.562 39.152q-29.071-7.62-41.672-7.59c-10.421 0.146-20.389 1.869-29.746 4.94l0.704-0.2c-4.961 1.841-10.692 2.981-16.666 3.148l-0.075 0.002q-20.221 0-24.601-27.151h-10.71q3.45 28.711 17.821 44.672c8.952 9.827 21.801 15.97 36.084 15.97 0.688 0 1.373-0.014 2.055-0.043l-0.098 0.003c0.512 0.009 1.117 0.015 1.723 0.015 8.918 0 17.566-1.155 25.803-3.322l-0.704 0.158 25.891-6.3c3.57-0.42 7.080-0.81 10.56-1.11s6.99-0.48 10.59-0.48q21.421 0 47.342 12l7.26-10.41q-43.562-19.261-58.412-39.152t-15.151-58.382v-78.903q0-30.331-6-44.522-6.3-14.791-25.861-34.081 32.161 12.961 44.822 30.931t12.63 53.672v65.343q0 36.931 6.3 53.342 7.95 18.991 31.561 32.521c7.9 4.568 17.3 9.121 27.032 13.020l1.529 0.541q18.451 7.59 45.302 17.041l61.232-82.353zM825.032 413.979l63.002 47.342-54.602 75.453c-14.311-4.86-24.001-11.040-28.711-18.631q-6.69-10.71-6.69-36.931v-82.383c0-6.72 0-12.42-0.3-17.041-0.147-4.056-0.491-7.868-1.028-11.618l0.068 0.577c-1.563-9.97-4.945-18.908-9.81-26.836l0.18 0.315c-4.586-7.788-10.317-14.37-17.049-19.751l-0.142-0.109c-3.36-2.55-8.1-5.64-14.191-9.33s-13.681-7.95-22.741-12.78c5.439 1.383 12.4 2.707 19.477 3.665l1.044 0.116c5.672 0.786 12.24 1.243 18.911 1.26h0.020c15.372-0.172 30.119-2.572 44.021-6.892l-1.090 0.292v166.957h9.63zM880.264 386.528v8.22l-39.002 19.561-16.111-12v-16.711c8.25-3.138 17.787-4.991 27.747-5.070h0.034c0.066 0 0.145 0 0.223 0 9.86 0 19.203 2.212 27.56 6.168l-0.392-0.167zM880.264 344.226v30.931c-8.441-2.522-18.18-4.113-28.245-4.406l-0.166-0.004c-9.641 0.196-18.839 1.794-27.495 4.599l0.674-0.189v-30.931c8.591 2.337 18.47 3.722 28.658 3.81h0.053c0.069 0 0.151 0 0.232 0 9.393 0 18.46-1.392 27.007-3.982l-0.659 0.172zM848.133 290.974q8.82 4.080 16.891 7.11c3.905 1.556 9.002 3.228 14.206 4.638l1.095 0.253v30.301c-7.676 3.19-16.592 5.043-25.94 5.043-0.204 0-0.408-0.001-0.612-0.003h0.031c-10.304-0.024-20.17-1.87-29.303-5.231l0.592 0.191v-35.671c3-1.47 6-3 9-4.26s6-3 9.45-4.56z" />
<glyph unicode="&#xe91e;" glyph-name="logo" horiz-adv-x="977" d="M968.354 281.093l-0.9 6.3c-6.3 140.089 10.799 312.276-49.196 439.466-24.898 47.096-1.5 93.593-53.696 119.391-2.383 1.142-4.349 2.241-6.241 3.443l0.242-0.144c-104.092 72.294-168.287 122.39-316.475 107.992-112.491-5.4-319.775-12.899-429.866-31.498-114.891-20.398-102.292-81.294-99.892-154.188 0-1.5 0.3-3 0.3-4.5 20.098-137.689-56.096-548.957 27.598-638.95 63.295-71.094 138.289-284.678 231.882-147.288 0.796 1.251 1.586 2.328 2.44 3.349l-0.040-0.050c17.699 20.998 41.397 48.596 66.595 56.096 53.696 12.599 144.889-32.997 210.584-43.797 239.681-47.396 471.863 1.2 416.667 284.378zM945.256 138.304c-39.297-161.987-242.981-139.789-386.67-119.091-1.2 0.3-2.1 0.3-3.3 0.6-112.791 24.598-225.282 95.993-298.477-21.598-94.793-137.089-80.994 172.487-78.594 233.682 3.9 136.489 5.7 338.374 5.1 456.864v4.26c2.277 19.43 17.693 34.641 37.023 36.583l0.174 0.014c208.784 20.698 423.567 1.2 625.751 26.998 1.597 0.218 3.443 0.343 5.317 0.343 11.686 0 22.242-4.842 29.769-12.63l0.011-0.012c62.695-65.695 62.095-274.779 62.395-358.772 0.005-0.162 0.008-0.352 0.008-0.543 0-1.187-0.112-2.348-0.326-3.472l0.018 0.115c-7.499-77.994 15.899-157.188 2.1-239.981 0.062-0.338 0.098-0.726 0.098-1.123 0-0.803-0.146-1.571-0.413-2.281l0.015 0.045z" />
<glyph unicode="&#xe91f;" glyph-name="keep" horiz-adv-x="976" d="M968.138 281.043c-0.37 1.793-0.638 3.915-0.746 6.079l-0.004 0.101c-6.36 140.045 10.92 312.402-49.262 439.397-24.871 47.192-1.35 93.544-53.732 119.465-2.327 1.101-4.294 2.23-6.163 3.494l0.162-0.103c-104.014 72.243-168.367 122.285-316.452 108.124-112.414-5.28-319.932-12.961-429.947-31.621-114.994-20.281-102.364-81.393-99.754-154.086 0.044-1.629 0.184-3.184 0.416-4.708l-0.026 0.208c20.131-137.555-56.192-549.021 27.661-639.025 63.392-71.133 138.215-284.651 231.849-147.246 0.81 1.14 1.65 2.28 2.55 3.36 17.671 21.001 41.522 48.752 66.723 55.982 53.702 12.54 144.906-33.001 210.518-43.772 239.349-47.552 471.528 1.2 416.206 284.351zM945.037 138.268c-39.392-162.006-243.009-139.835-386.565-119.015-1.080 0.15-2.16 0.36-3.21 0.57-112.774 24.541-225.189 96.004-298.482-21.691-94.894-137.015-81.003 172.417-78.573 233.769 3.99 136.655 5.58 338.563 5.13 457.038 0 1.17 0 2.28 0 3.42 0 0.27 0 0.54 0 0.78 2.242 19.489 17.744 34.745 37.155 36.589l0.166 0.013c208.688 20.761 423.737 1.17 625.734 27.001 1.601 0.22 3.452 0.346 5.332 0.346 11.68 0 22.225-4.858 29.726-12.663l0.013-0.014c62.672-65.793 62.192-274.781 62.372-358.784 0-0.037 0-0.080 0-0.123 0-1.299-0.076-2.58-0.225-3.839l0.015 0.153c-7.44-78.003 15.781-157.266 1.98-240.009 0.030-1.17-0.21-2.37-0.57-3.54zM594.023 198.57c-9.381 12.42-18.622 26.505-26.93 41.188l-1.001 1.924-3.96 6.15-69.213-76.863q-58.952 29.041-117.905 29.041-56.732 0-118.775-29.041l-10.23 13.081q93.244 69.483 93.274 109.984c-0.011 4.611-0.981 8.992-2.722 12.959l0.082-0.208c-1.825 4.226-4.196 7.856-7.077 11.011l0.027-0.030c-2.874 3.156-6.307 5.746-10.152 7.623l-0.199 0.088c-3.647 1.798-7.94 2.85-12.478 2.85-0.022 0-0.044 0-0.065 0h0.003c-8.578-0.301-16.206-4.134-21.515-10.081l-0.026-0.030-9.15 3.96q12.33 37.411 46.622 37.381 18.001 0 38.732-17.581v14.071q0 30.001-16.741 49.262c-9.606 12.107-24.319 19.803-40.83 19.803-0.18 0-0.36-0.001-0.539-0.003h0.027q-13.651 0-27.271-12l-10.11 2.64q15.871 40.232 51.482 40.232 16.741 0 41.372-16.261c-0.275 1.714-0.438 3.698-0.45 5.718v6.612q0 33.391 13.651 56.282c6.471 10.259 13.395 19.177 21.088 27.364l-0.087-0.093q13.861 15.391 34.981 35.191-50.612-23.311-73.473-23.311c-2.34 0-6 0.24-10.56 0.66s-10.71 1.26-18.001 2.43c-6.329 1.127-13.616 1.771-21.052 1.771-0.182 0-0.364 0-0.546-0.001h0.028q-44.432 0-59.372-43.562l-13.201 3c2.662 13.893 7.009 26.264 12.904 37.707l-0.363-0.776c5.53 10.925 12.362 20.286 20.46 28.381v0c7.563 7.463 16.52 13.536 26.443 17.788l0.558 0.213c9.412 4.060 20.371 6.421 31.88 6.421 0.13 0 0.261 0 0.391-0.001h-0.020c15.739-0.008 30.873-2.587 45.008-7.341l-0.997 0.291c5.070-1.78 11.018-3.171 17.163-3.919l0.417-0.041c7.393-1.959 15.881-3.084 24.631-3.084s17.238 1.125 25.326 3.238l-0.695-0.154c9.095 3.715 16.94 8.449 23.918 14.196l-0.157-0.126 5.73-4.83c-6.759-12.283-13.999-27.553-20.423-43.244l-1.148-3.168c-4.896-11.586-9.611-25.735-13.306-40.29l-0.465-2.161c-3.103-12.51-5.666-27.647-7.156-43.098l-0.104-1.334q-2.43-24.181-2.43-52.772c0-2.070 0-5.28 0.21-9.69s0.39-10.26 0.66-17.581v-21.991q0-37.831-9.66-55.442t-44.432-47.492l-63.002-52.802 60.272 28.591q50.132 24.211 67.293 48.002t16.951 71.703v9.69l-0.45 27.271v9.69c-0.008 1.184-0.013 2.584-0.013 3.985 0 21.365 1.094 42.475 3.23 63.277l-0.217-2.609c2.049 20.145 5.379 38.326 10.012 55.979l-0.561-2.517c4.362 16.966 10.007 31.738 17.081 45.661l-0.58-1.259c7.192 14.158 15.232 26.358 24.456 37.545l-0.275-0.344 10.56-8.82c-13.798-19.374-25.535-41.613-34.129-65.357l-0.612-1.936c-7.754-22.699-12.948-48.961-14.485-76.2l-0.035-0.783 107.314 85.323 63.902-79.593-110.434-75.633c19.825-13.012 36.796-28.304 51.17-45.81l0.312-0.392q11.43-14.101 25.291-34.321t29.251-48.002q15.001-25.501 23.311-25.501 5.73 0 17.161 10.98l5.28 4.83 8.34-10.11-63.002-61.142c-9.478 8.237-17.851 17.314-25.148 27.231l-0.323 0.46zM448.188 285.574q-11.43-20.701-39.572-40.472 38.702 0 61.142-5.28c9.22-1.86 17.257-4.283 24.963-7.359l-0.962 0.339c10.68-4.243 19.29-8.272 27.643-12.721l-1.482 0.72 35.641 39.002c-7.162 12.056-14.095 22.25-21.57 32.005l0.569-0.774c-6.685 8.701-13.828 16.396-21.621 23.38l-0.16 0.141c-6.928 6.18-14.712 11.657-23.086 16.182l-0.645 0.319c-7.71 4.134-16.679 7.737-26.065 10.339l-0.936 0.221q-2.1-34.831-14.011-55.952zM532.641 487.932l-70.803-56.312v-76.443l114.814 78.303zM701.127 208.141v6.18c9.007 4.971 15.579 13.418 17.952 23.485l0.049 0.246c1.454 8.265 2.285 17.781 2.285 27.491 0 1.632-0.023 3.258-0.070 4.878l0.005-0.238v110.794c0 15.841-1.050 25.651-3 29.461s-7.050 5.73-15.001 5.73h-2.19l-3 6.6c1.14 0.57 2.25 1.080 3.27 1.53l3.6 1.68q29.491 12.78 58.082 27.511t56.732 31.441l75.663-98.104-113.044-94.564v-57.182q14.041-6.18 27.481-12.75t26.611-14.101l45.002 30.001 6.15-8.79-91.054-60.692q-51.692 32.431-95.674 39.482zM782.521 446.59v-133.295l63.332 52.772z" />
<glyph unicode="&#xe920;" glyph-name="Kaaiioos" horiz-adv-x="976" d="M968.157 281.078c-0.372 1.777-0.637 3.873-0.739 6.012l-0.003 0.092c-6.398 140.056 10.915 312.435-49.266 439.426-25.004 47.436-1.126 94.015-54.512 119.85-1.969 0.965-3.646 1.974-5.227 3.107l0.109-0.074c-104.124 72.248-168.361 122.269-316.568 108.103-112.416-5.272-319.882-12.95-429.956-31.62-114.937-20.282-102.383-81.359-99.773-154.081 0.069-1.705 0.225-3.302 0.465-4.872l-0.030 0.239c20.077-137.599-56.163-548.821 27.653-638.882 63.342-71.122 138.2-284.616 231.831-147.298 0.872 1.309 1.713 2.431 2.611 3.505l-0.051-0.063c17.659 20.948 41.511 48.703 66.694 55.933 53.681 12.566 144.893-33.091 210.499-43.751 239.419-47.615 471.608 1.164 416.264 284.373zM945.175 138.476c-39.285-162.193-243.13-140.043-386.756-119.211-0.998 0.154-1.996 0.333-2.982 0.55-112.825 24.505-225.215 96.062-298.589-21.754-94.885-136.959-81.001 172.405-78.569 233.827 3.992 136.703 5.566 338.757 5.119 457.213 0 1.037 0 2.060 0.102 3.084v0.409c1.99 19.686 17.536 35.188 37.068 37.096l0.17 0.013c207.3 20.628 420.999 1.42 621.901 26.565 1.827 0.241 3.94 0.378 6.084 0.378 15.579 0 29.465-7.246 38.473-18.551l0.077-0.1c57.020-72.043 56.598-270.809 56.764-352.27 0-1.28 0-2.623-0.192-3.928-7.46-77.942 15.816-157.395 1.919-240.213-0.115-1.037-0.346-2.086-0.589-3.11zM717.503 155.47c-10.853 14.372-21.559 30.676-31.194 47.668l-1.168 2.238-4.581 7.14-80.015-89.19q-68.294 33.642-136.575 33.642-65.735 0-137.599-33.642l-11.721 15.292q108.052 80.527 108.039 127.4c0 0.016 0 0.035 0 0.054 0 5.325-1.126 10.387-3.152 14.962l0.093-0.236c-2.106 4.924-4.847 9.154-8.185 12.834l0.034-0.038c-3.323 3.667-7.297 6.675-11.748 8.856l-0.229 0.101c-4.222 2.091-9.193 3.314-14.45 3.314-0.026 0-0.052 0-0.078 0h0.004q-13.27 0-24.966-11.721l-10.672 4.53q14.217 43.264 53.988 43.264 20.884 0 44.787-20.385v16.366q0 34.652-19.361 57.072-19.271 22.944-47.845 22.931-15.816 0-31.607-13.756l-11.721 3.033q18.35 46.374 59.631 46.374 19.361 0 47.909-18.849c-0.314 1.98-0.499 4.271-0.512 6.603v7.691q0 38.722 15.791 65.261 8.164 13.756 24.211 31.607t40.513 40.769q-58.607-27.026-85.108-27.013c-2.726 0-6.795 0.256-12.233 0.768s-12.4 1.433-20.884 2.802c-7.309 1.295-15.724 2.036-24.312 2.036-0.234 0-0.469-0.001-0.703-0.002h0.036q-51.48 0-68.793-50.456l-15.292 3.57c3.088 16.103 8.122 30.441 14.946 43.707l-0.422-0.903c6.409 12.648 14.322 23.486 23.699 32.861v0c8.778 8.663 19.174 15.712 30.691 20.649l0.648 0.247c10.886 4.67 23.556 7.385 36.86 7.385 0.209 0 0.418-0.001 0.627-0.002h-0.032c0.013 0 0.028 0 0.043 0 18.209 0 35.722-2.983 52.076-8.487l-1.151 0.336q13.244-4.082 20.385-4.581c7.771-2.181 16.709-3.478 25.936-3.57h0.054q20.385 0 31.082 3.57t27.525 16.303l6.628-5.605c-7.837-14.237-16.221-31.919-23.656-50.091l-1.323-3.654c-5.627-13.451-11.038-29.881-15.262-46.782l-0.528-2.497c-3.577-14.454-6.543-31.97-8.284-49.845l-0.124-1.571q-2.828-28.024-2.815-61.154 0-3.57 0.256-11.21c0.166-5.119 0.422-11.901 0.768-20.385v-25.49q0-43.827-11.21-64.199-10.711-20.397-51.467-55.024l-72.875-61.154 69.817 33.13q58.083 28.024 77.968 55.549 19.361 27 19.361 83.061v11.222l-0.512 31.594v11.21c-0.005 1.041-0.009 2.272-0.009 3.505 0 25.148 1.3 49.992 3.836 74.469l-0.257-3.064c2.384 23.339 6.248 44.395 11.618 64.841l-0.652-2.92c5.068 19.654 11.602 36.758 19.781 52.886l-0.677-1.471c8.346 16.386 17.662 30.507 28.344 43.459l-0.32-0.4 12.233-10.237q-27-39.221-40.257-77.891-13.27-38.223-16.866-89.178l124.342 98.864 74.001-92.249-127.963-87.655c22.961-15.063 42.615-32.772 59.256-53.047l0.362-0.454q13.244-16.315 29.304-39.758t33.923-55.549q17.313-29.56 27-29.56 6.616 0 19.885 12.796l6.104 5.605 9.687-11.721-72.939-70.84q-14.242 11.67-29.777 32.055zM548.591 256.381q-13.27-23.98-45.862-46.886 44.787 0 70.84-6.117c10.666-2.159 19.963-4.972 28.876-8.543l-1.108 0.392c12.358-4.841 22.343-9.467 32.026-14.588l-1.698 0.819 41.255 45.312c-8.334 13.949-16.41 25.755-25.115 37.051l0.649-0.876c-7.757 10.108-16.045 19.046-25.089 27.158l-0.184 0.162c-8.034 7.162-17.063 13.509-26.777 18.749l-0.748 0.369c-8.949 4.787-19.36 8.958-30.254 11.965l-1.085 0.255q-1.996-40.769-15.752-65.223zM646.445 490.797l-82.050-65.261v-88.679l133.005 90.752z" />
<glyph unicode="&#xe921;" glyph-name="info-circle-fill" d="M512 960c-282.806 0-512-229.194-512-512s229.194-512 512-512 512 229.169 512 511.877-229.391 512.123-512 512.123zM667.077 205.662c0-0.037 0-0.080 0-0.123 0-19.712-15.98-35.692-35.692-35.692 0 0 0 0 0 0h-209.674c-19.712 0-35.692 15.98-35.692 35.692s15.98 35.692 35.692 35.692v0h64v231.852h-56.862c-19.033 0-34.462 15.429-34.462 34.462v0 0.123c0 0 0 0 0 0 0 19.062 15.411 34.525 34.454 34.609h100.931c20.392 0 36.923-16.531 36.923-36.923v0 0-264.123h64.517c0.051 0 0.112 0 0.173 0 19.669 0 35.622-15.91 35.692-35.563v-0.007zM573.169 692.258c0-36.624-29.69-66.314-66.314-66.314s-66.314 29.69-66.314 66.314c0 36.624 29.69 66.314 66.314 66.314v0c36.624 0 66.314-29.69 66.314-66.314v0z" />
<glyph unicode="&#xe922;" glyph-name="info-circle" d="M512.111 960c-282.867 0-512.111-229.243-512.111-512.111s229.243-512.111 512.111-512.111 512.111 229.219 512.111 511.988-229.44 512.234-512.111 512.234zM511.151 16.46c-237.105 0.014-429.311 192.229-429.311 429.336 0 237.116 192.22 429.336 429.336 429.336s429.336-192.22 429.336-429.336v0c0-237.116-192.22-429.336-429.336-429.336-0.043 0-0.086 0-0.13 0h0.007zM667.221 205.498c0-19.717-15.983-35.7-35.7-35.7v0h-209.719c-19.717 0-35.7 15.983-35.7 35.7s15.983 35.7 35.7 35.7v0h64.014v231.779h-56.874c0 0 0 0 0 0-19.037 0-34.469 15.432-34.469 34.469 0 0.043 0 0.087 0 0.13v-0.007c0 0 0 0 0 0 0 19.066 15.414 34.532 34.461 34.616h101.051c20.396 0 36.931-16.535 36.931-36.931v0-264.18h64.531c0.022 0 0.048 0 0.074 0 19.673 0 35.63-15.913 35.7-35.57v-0.007zM573.293 692.201c0-36.632-29.696-66.328-66.328-66.328s-66.328 29.696-66.328 66.328c0 36.632 29.696 66.328 66.328 66.328v0c36.632 0 66.328-29.696 66.328-66.328v0z" />
<glyph unicode="&#xe923;" glyph-name="info" horiz-adv-x="489" d="M489.004-1.906c0-34.294-27.801-62.094-62.094-62.094v0h-364.815c-34.294 0-62.094 27.801-62.094 62.094s27.801 62.094 62.094 62.094v0h111.342v403.057h-98.751c-33.111 0-59.953 26.842-59.953 59.953v0 0c0 0.089-0.001 0.195-0.001 0.3 0 33.163 26.811 60.064 59.94 60.21h175.762c35.476 0 64.236-28.759 64.236-64.236v0-459.284h112.241c34.294 0 62.094-27.801 62.094-62.094v0zM210.264 960c-0.051 0-0.111 0-0.171 0-63.715 0-115.367-51.652-115.367-115.367s51.652-115.367 115.367-115.367c63.715 0 115.367 51.651 115.367 115.367v0c0 0 0 0 0 0 0 63.655-51.554 115.269-115.186 115.367h-0.009z" />
<glyph unicode="&#xe924;" glyph-name="gear" horiz-adv-x="1046" d="M609.398-64c-13.018 0.007-24.215 7.797-29.19 18.97l-0.081 0.203-32.636 74.881c-9.68-0.771-20.959-1.211-32.34-1.211-4.966 0-9.913 0.084-14.839 0.25l0.717-0.019-31.443-73.176c-5.018-11.475-16.271-19.347-29.362-19.347-16.207 0-29.597 12.066-31.675 27.705l-0.018 0.163-10.311 80.739c-16.844 4.832-30.413 9.607-43.644 15.036l2.805-1.019-61.992-62.503c-5.795-5.857-13.833-9.483-22.719-9.483-17.648 0-31.955 14.307-31.955 31.955 0 2.863 0.377 5.639 1.083 8.279l-0.051-0.223 21.921 84.318c-13.276 9.842-24.918 19.504-36.016 29.749l0.291-0.265-67.616-38.346c-4.501-2.571-9.892-4.087-15.637-4.087-17.648 0-31.955 14.307-31.955 31.955 0 5.838 1.566 11.311 4.3 16.021l-0.082-0.153 43.288 74.561q-10.886 16.68-20.217 34.426l-85.106-14.167c-1.593-0.281-3.427-0.442-5.298-0.442-17.648 0-31.955 14.307-31.955 31.955 0 9.93 4.529 18.802 11.635 24.663l0.054 0.044 72.985 60.011c-3.031 12.671-5.759 28.509-7.578 44.623l-0.177 1.925-70.577 18.129c-13.904 3.666-23.989 16.128-23.989 30.946 0 14.663 9.876 27.019 23.338 30.78l0.225 0.054 71.813 19.471c2.417 18.901 5.611 35.389 9.746 51.5l-0.628-2.886-63.27 43.629c-8.339 5.848-13.723 15.417-13.723 26.244 0 17.648 14.307 31.955 31.955 31.955 0.811 0 1.615-0.030 2.411-0.090l-0.106 0.006 79.546-6.114q9.459 17.639 20.472 34.255l-44.63 68.617c-3.251 4.922-5.187 10.961-5.187 17.453 0 17.648 14.307 31.955 31.955 31.955 5.307 0 10.312-1.294 14.717-3.583l-0.177 0.084 70.663-35.875q14.486 13.229 30.165 25.138l-26.118 78.822c-0.993 2.95-1.565 6.347-1.565 9.879 0 17.648 14.307 31.955 31.955 31.955 8.173 0 15.63-3.069 21.28-8.116l-0.031 0.027 66.487-59.5c10.756 4.73 24.59 9.8 38.745 14.136l2.946 0.776 6.199 76.883c1.364 16.514 15.104 29.4 31.852 29.4 12.646 0 23.577-7.346 28.757-18.005l0.083-0.19 33.723-70.726c6.377 0.337 13.842 0.529 21.353 0.529 10.958 0 21.82-0.409 32.572-1.211l-1.434 0.086 34.49 71.003c5.294 10.761 16.179 18.036 28.764 18.036 16.806 0 30.581-12.973 31.858-29.451l0.007-0.109 6.071-79.333q14.422-4.729 28.354-10.46l67.829 59.031c5.558 4.798 12.851 7.72 20.827 7.72 17.648 0 31.955-14.307 31.955-31.955 0-3.631-0.606-7.121-1.721-10.373l0.067 0.225-26.224-77.288c13.658-10.214 25.677-20.315 37.105-31.038l-0.229 0.213 67.808 35.491c4.285 2.278 9.369 3.616 14.765 3.616 17.648 0 31.955-14.307 31.955-31.955 0-6.221-1.778-12.026-4.852-16.936l0.078 0.134-43.48-69.96q9.586-14.912 17.916-30.613l86.533 4.516c0.5 0.028 1.084 0.044 1.673 0.044 17.648 0 31.955-14.307 31.955-31.955 0-11.137-5.697-20.943-14.336-26.663l-0.119-0.074-68.383-44.737c3.974-15.846 7.287-35.061 9.252-54.673l0.143-1.759 85.468-20.558c14.23-3.432 24.637-16.053 24.637-31.106 0-14.456-9.599-26.67-22.771-30.615l-0.226-0.058-90.73-26.97c-1.683-10.311-3.771-20.515-6.199-30.57l78.63-52.278c8.638-5.811 14.245-15.55 14.245-26.598 0-17.648-14.307-31.955-31.955-31.955-0.657 0-1.31 0.020-1.957 0.059l0.089-0.004-99.379 5.901v1.64q-6.391-11.418-13.251-22.368l49.658-80.824c2.961-4.755 4.717-10.527 4.717-16.709 0-17.648-14.307-31.955-31.955-31.955-5.535 0-10.741 1.407-15.28 3.883l0.167-0.084-77.373 41.562q-12.143-11.248-25.138-21.559l23.263-80.483c0.817-2.688 1.287-5.778 1.287-8.977 0-17.648-14.307-31.955-31.955-31.955-8.632 0-16.465 3.423-22.215 8.986l0.009-0.008-60.139 58.008q-17.937-8.010-36.663-14.38l-9.927-86.789c-1.694-14.397-12.745-25.774-26.834-27.948l-0.179-0.023c-1.394-0.231-3-0.363-4.637-0.363-0.062 0-0.125 0-0.187 0.001h0.010zM366.819 124.661c43.45-20.182 94.315-31.955 147.929-31.955 0.12 0 0.239 0 0.359 0h-0.018c184.72 0 337.314 139.514 356.977 318.248l-252.144-7.179c-20.334-37.797-59.61-63.056-104.786-63.056-12.415 0-24.385 1.908-35.632 5.446l0.84-0.228zM310.451 743.837c-93.754-65.17-154.384-172.304-154.49-293.605v-0.016c0-121.769 61.481-229.499 155.172-294.090l115.037 224.684c-17.945 20.196-28.907 46.947-28.907 76.257 0 27.31 9.517 52.398 25.415 72.127l-0.172-0.221zM515.089 509.502c-29.675 0-53.812-23.433-53.812-52.427s24.179-52.448 53.918-52.448 53.812 23.433 53.812 52.448-24.136 52.427-53.812 52.427zM515.089 573.412h0.107c61.161 0 111.565-46.334 117.167-105.344l241.066 6.902c-12.782 185.614-168.614 332.734-358.276 332.734-0.156 0-0.342 0-0.527 0-53.871 0-104.966-11.885-150.807-33.175l2.212 0.922 109.030-208.941c11.857 4.373 25.551 6.902 39.836 6.902 0.068 0 0.136 0 0.204 0h-0.011z" />
<glyph unicode="&#xe925;" glyph-name="ellipsis-vertical-circle" horiz-adv-x="1019" d="M437.258 676.996c0-0.011 0-0.023 0-0.036 0-39.129 31.72-70.85 70.85-70.85s70.85 31.72 70.85 70.85c0 39.129-31.72 70.85-70.85 70.85-0.013 0-0.025 0-0.038 0h0.002c-39.109 0-70.814-31.704-70.814-70.814v0zM507.067 516.392c0.011 0 0.023 0 0.036 0 39.129 0 70.85-31.72 70.85-70.85s-31.72-70.85-70.85-70.85c-39.129 0-70.85 31.72-70.85 70.85 0 0.013 0 0.025 0 0.038v-0.002c0 39.109 31.704 70.814 70.814 70.814v0zM507.067 284.651c39.109 0 70.814-31.704 70.814-70.814s-31.704-70.814-70.814-70.814c-39.109 0-70.814 31.704-70.814 70.814v0c0 39.109 31.704 70.814 70.814 70.814v0zM1019.085 448.018c0-282.322-228.584-512.018-509.399-512.018s-509.686 229.696-509.686 512.018 228.584 511.982 509.399 511.982 509.686-229.588 509.686-511.982zM86.096 448.018c0-234.862 190.128-425.922 423.304-425.922s423.304 191.061 423.304 425.922-189.662 425.886-423.304 425.886-423.304-191.061-423.304-425.886z" />
<glyph unicode="&#xe926;" glyph-name="ellipsis-circle-fill" horiz-adv-x="1017" d="M759.088 527.631c-0.012 0-0.025 0-0.039 0-42.777 0-77.454-34.677-77.454-77.454s34.677-77.454 77.454-77.454c42.777 0 77.454 34.677 77.454 77.454v0c0 42.763-34.655 77.432-77.413 77.454h-0.002zM503 525.003c-42.755 0-77.415-34.66-77.415-77.415s34.66-77.415 77.415-77.415c42.755 0 77.415 34.66 77.415 77.415v0c0 42.755-34.66 77.415-77.415 77.415v0zM248.088 525.003c-42.755 0-77.415-34.66-77.415-77.415s34.66-77.415 77.415-77.415c42.755 0 77.415 34.66 77.415 77.415v0c0 42.755-34.66 77.415-77.415 77.415v0zM1017.294 448.020c0-282.795-227.734-512.020-508.647-512.020s-508.647 229.224-508.647 512.020 227.734 511.98 508.647 511.98 508.647-229.224 508.647-511.98z" />
<glyph unicode="&#xe927;" glyph-name="ellipsis-circle" horiz-adv-x="1029" d="M744.57 520.633c-0.011 0-0.023 0-0.036 0-39.318 0-71.191-31.873-71.191-71.191s31.873-71.191 71.191-71.191c39.318 0 71.191 31.873 71.191 71.191 0 0.013 0 0.025 0 0.038v-0.002c0 39.298-31.857 71.155-71.155 71.155v0zM583.191 450.487c0-0.011 0-0.023 0-0.036 0-39.318-31.873-71.191-71.191-71.191s-71.191 31.873-71.191 71.191c0 39.267 31.791 71.109 71.039 71.191h0.008c0.054 0 0.117 0 0.18 0 39.298 0 71.155-31.857 71.155-71.155 0 0 0 0 0 0v0zM350.333 450.487c0-0.011 0-0.023 0-0.036 0-39.318-31.873-71.191-71.191-71.191s-71.191 31.873-71.191 71.191c0 39.318 31.873 71.191 71.191 71.191 0.013 0 0.025 0 0.038 0h-0.002c39.298 0 71.155-31.857 71.155-71.155v0zM514.451-64c-283.756 0-514.451 229.686-514.451 512.144s230.696 511.856 514.451 511.856 514.487-229.686 514.487-511.856-230.804-512.144-514.487-512.144zM514.451 873.489c-235.958 0-427.94-191.045-427.94-425.345s191.982-425.345 427.94-425.345 427.976 190.865 427.976 425.345-191.982 425.345-427.976 425.345z" />
<glyph unicode="&#xe928;" glyph-name="ellipsis-vertical-circle-fill" horiz-adv-x="1031" d="M595.491 195.908c0 43.037-34.888 77.925-77.925 77.925s-77.925-34.888-77.925-77.925c0-43.037 34.888-77.925 77.925-77.925v0c43.037 0 77.925 34.888 77.925 77.925v0zM592.886 453.685c0 0.012 0 0.026 0 0.039 0 43.059-34.906 77.965-77.965 77.965s-77.965-34.906-77.965-77.965c0-43.059 34.906-77.965 77.965-77.965 0.014 0 0.028 0 0.042 0h-0.002c43.037 0 77.925 34.888 77.925 77.925v0zM592.886 710.277c0 0.012 0 0.026 0 0.039 0 43.059-34.906 77.965-77.965 77.965s-77.965-34.906-77.965-77.965c0-43.059 34.906-77.965 77.965-77.965 0.014 0 0.028 0 0.042 0h-0.002c43.037 0 77.925 34.888 77.925 77.925v0zM515.355-64c-284.62 0-515.355 229.235-515.355 512s230.736 512 515.355 512 515.395-229.235 515.395-512-230.736-512-515.395-512z" />
<glyph unicode="&#xe929;" glyph-name="eeiiva" horiz-adv-x="976" d="M968.138 281.043c-0.37 1.793-0.638 3.915-0.746 6.079l-0.004 0.101c-6.36 140.045 10.92 312.402-49.262 439.397-24.871 47.192-1.35 93.544-53.732 119.465-2.327 1.101-4.294 2.23-6.163 3.494l0.162-0.103c-104.014 72.243-168.367 122.285-316.452 108.124-112.414-5.28-319.932-12.961-429.947-31.621-114.994-20.281-102.364-81.393-99.754-154.086 0.044-1.629 0.184-3.184 0.416-4.708l-0.026 0.208c20.131-137.555-56.192-549.021 27.661-639.025 63.392-71.133 138.215-284.651 231.849-147.246 0.81 1.14 1.65 2.28 2.55 3.36 17.671 21.001 41.522 48.752 66.723 55.982 53.702 12.54 144.906-33.001 210.518-43.772 239.349-47.552 471.528 1.2 416.206 284.351zM945.037 138.268c-39.392-162.006-243.009-139.835-386.565-119.015-1.080 0.15-2.16 0.36-3.21 0.57-112.774 24.541-225.189 96.004-298.482-21.691-94.894-137.015-81.003 172.417-78.573 233.769 3.99 136.655 5.58 338.563 5.13 457.038 0 1.17 0 2.28 0 3.42 0 0.27 0 0.54 0 0.78 2.242 19.489 17.744 34.745 37.155 36.589l0.166 0.013c208.688 20.761 423.737 1.17 625.734 27.001 1.601 0.22 3.452 0.346 5.332 0.346 11.68 0 22.225-4.858 29.726-12.663l0.013-0.014c62.672-65.793 62.192-274.781 62.372-358.784 0-0.037 0-0.080 0-0.123 0-1.299-0.076-2.58-0.225-3.839l0.015 0.153c-7.44-78.003 15.781-157.266 1.98-240.009 0.030-1.17-0.21-2.37-0.57-3.54zM424.097 224.131q69.483 0 137.765 51.002l4.47-5.73q-29.851-49.472-71.733-75.003c-25.827-15.981-57.145-25.451-90.675-25.451-0.671 0-1.341 0.004-2.011 0.011l0.102-0.001q-76.413 0-129.965 55.982-52.742 56.432-52.742 137.765 0 114.454 125.075 180.247l5.31-9q-83.343-55.982-83.373-138.575c-0.006-0.55-0.010-1.2-0.010-1.851 0-37.931 12.099-73.035 32.648-101.666l-0.357 0.523q13.921 12.69 17.191 21.271c2.43 5.16 3.66 15.391 3.66 30.631v133.685l114.004 91.144q63.722-31.501 106.264-31.471c2.16 0 4.5 0 6.93 0.21s4.77 0.33 6.96 0.6l3.27-8.58-81.333-82.563 67.023-1.23-30.661-54.002-94.414 3.24v-171.247zM374.655 381.907q0-27.391-5.73-39.662t-31.471-32.701l-32.311-26.551q37.621-47.432 99.754-57.242v299.622l-30.241-24.391zM417.556 519.253v-112.834l82.173 82.983c-30.894 5.384-58.508 15.805-83.311 30.474l1.138-0.623zM627.265 226.171q22.051 15.931 64.563 17.581c7.663 0.079 15.039 1.169 22.044 3.143l-0.593-0.143c5.558 1.537 10.285 4.534 13.897 8.554l0.023 0.026c3.506 4.261 6.073 9.428 7.307 15.093l0.043 0.238c1.442 6.43 2.268 13.814 2.268 21.391 0 0.675-0.007 1.349-0.020 2.021l0.002-0.101c0.004 0.392 0.006 0.856 0.006 1.32 0 11.784-1.424 23.236-4.11 34.192l0.203-0.981c-2.411 10.283-6.139 19.354-11.074 27.621l0.243-0.44c-4.239 7.202-9.945 13.109-16.745 17.458l-0.206 0.123c-6.176 3.772-13.648 6.005-21.642 6.005-0.228 0-0.456-0.002-0.683-0.005h0.034c-0.213 0.002-0.464 0.004-0.716 0.004-3.782 0-7.494-0.296-11.116-0.866l0.401 0.052c-7.012-1.167-13.232-3.907-18.501-7.849l0.11 0.079c-3.637-2.702-6.835-5.376-9.873-8.219l0.063 0.058-5.31 3.66q25.321 46.172 65.403 46.202c5.814-0.016 11.447-0.759 16.822-2.143l-0.472 0.103c0.185 13.914 1.433 27.393 3.666 40.537l-0.216-1.535c2.013 12.031 5.364 22.803 9.963 32.886l-0.333-0.815q12.66 28.621 43.712 59.282-33.931-13.501-53.132-13.501c-0.291-0.005-0.635-0.008-0.979-0.008-4.284 0-8.464 0.451-12.493 1.308l0.391-0.070-21.241 3.69c-3.81 0.54-6.96 1.020-9.42 1.41-1.679 0.339-3.641 0.566-5.645 0.629l-0.056 0.001q-15.571 0-24.331-6.54t-16.141-22.891l-6.96 1.23c1.013 9.833 3.695 18.826 7.765 27.006l-0.205-0.455c7.54 15.319 20.313 27.1 35.936 33.175l0.455 0.156c7.601 2.966 16.4 4.684 25.601 4.684 0.271 0 0.541-0.001 0.811-0.004h-0.041c12.352-0.341 24.119-2.258 35.294-5.556l-0.972 0.246c13.513-3.827 29.087-6.192 45.158-6.537l0.203-0.003c14.607 0.074 28.387 3.544 40.613 9.661l-0.531-0.241 5.31-6.15q-28.201-23.701-39.662-48.212t-11.13-61.112q0-15.511 1.44-35.161t4.29-43.322l5.31-43.322c0.54-3.81 0.96-8.37 1.23-13.711s0.42-11.1 0.42-17.371q0-33.931-15.961-48.632t-55.172-18.391c11.922-8.35 22.355-16.802 32.168-25.912l-0.186 0.171q5.7-5.31 9.99-8.79c2.234-1.865 4.71-3.683 7.296-5.344l0.294-0.177c6.17-2.845 13.389-4.505 20.995-4.505 0.234 0 0.468 0.002 0.701 0.005h-0.035q43.712 0 43.712 55.592 0 17.161-2.43 43.532t-7.77 63.542q-4.5 33.541-6.96 55.202c-1.263 9.39-2.138 20.561-2.422 31.88l-0.008 0.401q0 116.105 92.374 128.345l5.7-9.81c-2.261-0.837-5.131-1.683-8.065-2.36l-0.515-0.1q-24.001-7.35-33.931-20.431t-9.81-38.011c0-7.080 0.63-17.041 1.86-29.821s3.18-28.351 6-46.622l0.84-6.93q5.7-40.922 8.76-70.323c1.702-14.117 2.786-30.71 2.997-47.514l0.003-0.308q0-57.602-27.811-91.564t-73.983-33.901q-24.001 0-71.523 17.551-39.242 14.311-55.172 14.311-25.801 0-43.352-31.051l-7.35 2.85q11.88 38.432 32.311 53.552z" />
<glyph unicode="&#xe92a;" glyph-name="deeniiz" horiz-adv-x="976" d="M968.138 281.043c-0.37 1.793-0.638 3.915-0.746 6.079l-0.004 0.101c-6.36 140.045 10.92 312.402-49.262 439.397-24.871 47.192-1.35 93.544-53.732 119.465-2.327 1.101-4.294 2.23-6.163 3.494l0.162-0.103c-104.014 72.243-168.367 122.285-316.452 108.124-112.414-5.28-319.932-12.961-429.947-31.621-114.994-20.281-102.364-81.393-99.754-154.086 0.044-1.629 0.184-3.184 0.416-4.708l-0.026 0.208c20.131-137.555-56.192-549.021 27.661-639.025 63.392-71.133 138.215-284.651 231.849-147.246 0.81 1.14 1.65 2.28 2.55 3.36 17.671 21.001 41.522 48.752 66.723 55.982 53.702 12.54 144.906-33.001 210.518-43.772 239.349-47.552 471.528 1.2 416.206 284.351zM945.037 138.268c-39.392-162.006-243.009-139.835-386.565-119.015-1.080 0.15-2.16 0.36-3.21 0.57-112.774 24.541-225.189 96.004-298.482-21.691-94.894-137.015-81.003 172.417-78.573 233.769 3.99 136.655 5.58 338.563 5.13 457.038 0 1.17 0 2.28 0 3.42 0 0.27 0 0.54 0 0.78 2.242 19.489 17.744 34.745 37.155 36.589l0.166 0.013c208.688 20.761 423.737 1.17 625.734 27.001 1.601 0.22 3.452 0.346 5.332 0.346 11.68 0 22.225-4.858 29.726-12.663l0.013-0.014c62.672-65.793 62.192-274.781 62.372-358.784 0-0.037 0-0.080 0-0.123 0-1.299-0.076-2.58-0.225-3.839l0.015 0.153c-7.44-78.003 15.781-157.266 1.98-240.009 0.030-1.17-0.21-2.37-0.57-3.54zM535.431 189.96c-1.412 0.018-3.079 0.029-4.749 0.029-32.896 0-64.839-4.080-95.351-11.762l2.686 0.573c-35.256-9.867-65.999-22.935-94.566-39.362l1.982 1.051-10.080 13.831 5.31 3.18c1.77 1.080 3.72 2.34 6 3.75l75.003 44.672q72.903 44.162 97.924 90.004c5.246 9.056 8.987 19.657 10.568 30.951l0.053 0.46q1.080 8.49 1.86 24.001t0.81 38.281v53.612q0 66.003 3.72 86.163c1.849 8.796 4.238 16.453 7.256 23.785l-0.326-0.894c3.972 9.808 8.43 18.209 13.629 26.077l-0.339-0.546c-10.249-2.707-19.231-6.526-27.493-11.431l0.492 0.27c-7.46-4.468-13.913-9.489-19.692-15.192l0.011 0.011c-5.088-4.978-9.351-10.774-12.581-17.179l-0.17-0.371c-2.543-4.975-4.613-10.75-5.916-16.811l-0.085-0.47q-1.080-8.010-1.86-27.391t-0.93-51.272v-51.602q0-63.842-16.501-94.714t-72.873-74.463q-17.041-12.24-35.401-25.291t-38.552-26.341l-9.6 12.78c2.13 1.77 3.81 3 5.070 3.99 0.854 0.616 1.834 1.232 2.854 1.787l0.147 0.073c14.475 10.325 27.048 20.365 39.063 31.020l-0.481-0.419c9.096 7.95 17.215 16.574 24.44 25.922l0.311 0.419c11.058 14.1 17.802 32.045 18 51.557v0.045c0.006 0.324 0.010 0.705 0.010 1.088 0 15.804-6.071 30.191-16.008 40.955l0.038-0.041c-8.559 10.997-21.798 18.004-36.673 18.004-0.207 0-0.413-0.001-0.62-0.004h0.031q-18.631 0-36.181-18.001l-10.11 8.52q27.001 53.732 76.623 53.732c12.21-0.534 23.652-3.23 34.148-7.712l-0.637 0.242v11.73q1.62 74.463 20.221 107.464 19.171 33.001 80.343 67.023l-15.421-0.51q-45.752-1.62-73.413-1.62-63.362 0-88.323 21.301-25.561 21.241-25.561 74.493v7.92h9c5.752-14.943 17.71-26.38 32.63-31.305l0.371-0.106q11.16-3.21 46.802-3.18c4.62 0 11.16 0.18 19.681 0.54s18.991 0.87 31.381 1.59q44.192 2.13 80.073 3.18t64.653 1.080q91.504 0 136.745-30.871 48.002-33.001 68.103-118.115 18.001-78.753 18.001-240.999v-19.171l-109.954-76.083q-92.584 26.071-175.597 26.071zM554.572 531.973c-1.676-9.889-2.818-21.543-3.171-33.396l-0.009-0.385q-1.080-22.621-1.080-57.182v-62.792q0-52.142-10.11-78.753-9.57-27.631-38.311-53.732c26.42 6.802 56.821 10.864 88.117 11.189l0.207 0.002v323.023h-12.24q-18.631-26.071-23.401-47.882zM737.069 446.98q-6 70.203-30.331 97.354-24.481 27.691-89.373 34.051c-0.36 0-3.93 0.54-10.65 1.59v-132.995q37.771-23.431 64.893-23.431 32.461-0.030 65.463 23.431zM744.509 336.846q-0.54 10.080-1.59 32.461t-3.21 57.452q-39.362-21.781-67.023-21.781-31.921 0-66.003 21.811v-90.994q38.852 22.381 70.773 22.351 29.821-0.060 67.053-21.331zM676.406 249.572q10.080-2.64 57.452-14.341c3.692-1.244 8.178-2.36 12.779-3.135l0.541-0.075q0 24.001-0.54 44.702t-1.59 39.362q-37.801 25.021-68.103 25.021-36.181 0-70.233-24.001v-60.632l10.11-0.54c21.811-0.928 42.314-3.215 62.366-6.803l-2.784 0.413z" />
<glyph unicode="&#xe92b;" glyph-name="deematt" horiz-adv-x="976" d="M968.138 281.043c-0.37 1.793-0.638 3.915-0.746 6.079l-0.004 0.101c-6.36 140.045 10.92 312.402-49.262 439.397-24.871 47.192-1.35 93.544-53.732 119.465-2.327 1.101-4.294 2.23-6.163 3.494l0.162-0.103c-104.014 72.243-168.367 122.285-316.452 108.124-112.414-5.28-319.932-12.961-429.947-31.621-114.994-20.281-102.364-81.393-99.754-154.086 0.044-1.629 0.184-3.184 0.416-4.708l-0.026 0.208c20.131-137.555-56.192-549.021 27.661-639.025 63.392-71.133 138.215-284.651 231.849-147.246 0.81 1.14 1.65 2.28 2.55 3.36 17.671 21.001 41.522 48.752 66.723 55.982 53.702 12.54 144.906-33.001 210.518-43.772 239.349-47.552 471.528 1.2 416.206 284.351zM945.037 138.268c-39.392-162.006-243.009-139.835-386.565-119.015-1.080 0.15-2.16 0.36-3.21 0.57-112.774 24.541-225.189 96.004-298.482-21.691-94.894-137.015-81.003 172.417-78.573 233.769 3.99 136.655 5.58 338.563 5.13 457.038 0 1.17 0 2.28 0 3.42 0 0.27 0 0.54 0 0.78 2.242 19.489 17.744 34.745 37.155 36.589l0.166 0.013c208.688 20.761 423.737 1.17 625.734 27.001 1.601 0.22 3.452 0.346 5.332 0.346 11.68 0 22.225-4.858 29.726-12.663l0.013-0.014c62.672-65.793 62.192-274.781 62.372-358.784 0-0.037 0-0.080 0-0.123 0-1.299-0.076-2.58-0.225-3.839l0.015 0.153c-7.44-78.003 15.781-157.266 1.98-240.009 0.030-1.17-0.21-2.37-0.57-3.54zM333.193 261.273c-0.793 0.010-1.73 0.016-2.668 0.016-19.012 0-37.473-2.358-55.107-6.797l1.553 0.331c-20.357-5.689-38.111-13.232-54.605-22.717l1.143 0.606-6 7.98 3 1.83 3.36 2.16 43.322 25.801q42.002 25.531 56.522 51.932c1.5 2.564 2.86 5.538 3.917 8.652l0.103 0.348c0.908 2.627 1.653 5.737 2.099 8.942l0.031 0.268c0.42 3.27 0.78 7.89 1.080 13.831s0.45 13.291 0.45 22.111v30.901q0 38.131 2.16 49.772c1.074 5.080 2.449 9.496 4.181 13.727l-0.191-0.527c2.319 5.678 4.894 10.534 7.884 15.092l-0.204-0.332c-5.892-1.591-11.049-3.796-15.802-6.61l0.291 0.16c-4.309-2.582-8.036-5.479-11.378-8.768l0.008 0.008c-2.938-2.88-5.404-6.228-7.281-9.925l-0.099-0.215c-1.491-2.877-2.701-6.215-3.461-9.721l-0.049-0.269c-0.42-3-0.78-8.34-1.080-15.811s-0.48-17.371-0.48-29.641v-29.791q0-36.901-9.51-54.692t-42.002-43.022q-9.81-7.050-20.431-14.581t-22.261-15.211l-5.52 7.38c1.2 1.020 2.19 1.77 3 2.31 0.488 0.377 1.039 0.726 1.62 1.022l0.060 0.028c8.368 5.977 15.632 11.775 22.58 17.921l-0.289-0.251c5.233 4.602 9.916 9.58 14.098 14.967l0.182 0.244c6.45 8.123 10.41 18.478 10.59 29.751l0.001 0.040c0.004 0.188 0.006 0.411 0.006 0.633 0 9.129-3.503 17.44-9.238 23.662l0.022-0.024c-4.947 6.377-12.611 10.442-21.224 10.442-0.101 0-0.201-0.001-0.302-0.002h0.015q-10.77 0-21.001-10.44l-6 4.92q15.661 31.051 44.252 31.021c7.088-0.283 13.739-1.833 19.839-4.429l-0.368 0.139v6.75q0.9 43.022 11.67 62.072t46.382 38.702l-9-0.3q-26.431-0.93-42.392-0.93-36.601 0-51.002 12.3t-14.731 42.992v4.62h5.22c3.34-8.57 10.227-15.123 18.807-17.94l0.214-0.061c4.32-1.23 13.321-1.86 27.001-1.86 2.64 0 6.45 0 11.34 0.3s10.98 0.51 18.001 0.93q25.471 1.23 46.232 1.86t37.321 0.6q52.832 0 78.933-17.821 27.661-19.051 39.332-68.193 10.44-45.482 10.44-139.175v-11.040l-63.572-43.952c-30.154 9.134-64.847 14.567-100.753 14.939l-0.201 0.002zM344.233 458.8c-0.968-5.712-1.626-12.441-1.825-19.284l-0.005-0.217q-0.63-13.051-0.63-33.001v-36.241q0-30.001-5.82-45.482c-4.882-12.389-12.449-22.81-22.029-30.929l-0.112-0.092c15.262 3.938 32.819 6.28 50.895 6.449l0.107 0.001v186.427h-7.050c-6.018-7.831-10.655-17.074-13.346-27.114l-0.125-0.547zM449.598 409.659q-3.36 40.532-17.491 56.222t-51.632 19.651c-0.18 0-2.25 0.3-6 0.93v-76.803q21.781-13.561 37.471-13.531 18.661-0.15 37.711 13.501zM453.918 346.056q-0.3 6-0.93 18.751c-0.42 8.61-1.020 19.651-1.83 33.181q-22.771-12.6-38.732-12.6-18.391 0-38.071 12.6v-52.532q22.411 12.871 40.862 12.901 17.251-0.030 38.762-12.33zM414.586 295.684q5.85-1.53 33.181-8.31c2.088-0.68 4.675-1.315 7.32-1.778l0.36-0.052q0 13.801-0.3 25.801t-0.93 22.741q-21.841 14.431-39.332 14.431c-15.305-0.246-29.36-5.402-40.708-13.958l0.177 0.128v-35.011l5.82-0.3c12.662-0.574 24.521-1.904 36.127-3.964l-1.656 0.244zM850.833 270.483q-4.8 11.040-4.8 40.532v185.557l-29.791 23.041-9.84-7.080v-97.084h24.001l-24.001-31.321v-82.323l14.731 13.201 6.45-7.080-70.353-61.742c-6.75 7.988-13.672 15.214-21.016 21.99l-0.165 0.15c-7.331 6.728-15.24 13.266-23.478 19.388l-0.793 0.563v5.22c0.81 0.63 1.89 1.38 3.21 2.31 1.779 1.259 3.334 2.52 4.804 3.871l-0.034-0.031q6 6 6 25.501v59.582h-54.902v-82.923q0-73.443-62.042-73.443c-2.46 0-10.14 0.33-23.041 0.93-3.372 0.783-7.243 1.232-11.22 1.232-0.169 0-0.338-0.001-0.507-0.002h0.026q-19.021 0-22.111-18.751h-9v5.55q0 22.741 9 33.001t31.501 12.72q21.211 2.49 30.721 13.081t9.51 31.771c0.013 0.506 0.020 1.101 0.020 1.698 0 15.501-4.954 29.845-13.366 41.535l0.145-0.212q-12.931 18.451-29.491 18.421-12.3 0-22.741-12.901l-7.38 5.22c2.378 5.462 5.212 10.172 8.568 14.453l-0.107-0.142c3.148 3.933 6.799 7.289 10.897 10.031l0.174 0.11c4.203 2.779 9.045 5.113 14.195 6.756l0.416 0.115c5.54 1.755 12.057 3.108 18.768 3.804l0.433 0.036q0.33 33.001 7.98 53.132c5.806 14.28 14.487 26.332 25.394 35.91l0.107 0.092q6.75 6 14.281 11.52c4.726 3.606 10.094 7.214 15.672 10.501l0.769 0.419c3.27 2.040 10.080 6 20.431 11.82l41.642 23.491 5.82 3.39q17.821-10.14 24.001-20.281 5.52-9.24 7.050-31.621l73.743 53.132 44.552-35.641c1.62 1.65 3.93 3.9 6.9 6.75s6.72 6.36 11.22 10.47l7.98-6q-13.831-15.361-17.521-26.731-3.36-12-3.36-41.162v-140.705c0-12.48 0.6-20.281 1.83-23.341s4.92-6.57 11.070-9.84l12.6 10.14 7.35-7.98-48.212-38.101q-19.711 13.231-24.631 24.271zM654.506 273.243q7.050 10.74 7.080 43.952v129.005q0 33.481 6.75 48.872-15.661-12.6-19.351-24.901t-3.69-52.832v-84.363q0-36.241-5.82-49.142-6.15-13.531-24.901-21.001l9.21-0.45 2.79-0.15q20.941 0.24 27.991 10.98zM722.398 501.522q-3 7.98-16.591 16.891-23.041-13.831-29.161-26.431-6-12-5.85-45.452v-55.652l18.421 24.571h36.271v51.002q0.060 27.661-3.030 35.041zM797.401 505.812l-28.891-21.001v-69.453h28.891zM768.51 335.016q0-27.361 3-36.271c1.766-5.293 6.677-9.041 12.463-9.041 0.365 0 0.727 0.015 1.084 0.044l-0.047-0.003c4.907 0.2 9.261 2.414 12.285 5.832l0.016 0.018v89.133h-28.891z" />
<glyph unicode="&#xe92c;" glyph-name="cube" horiz-adv-x="976" d="M968.138 281.043c-0.37 1.793-0.638 3.915-0.746 6.079l-0.004 0.101c-6.36 140.045 10.92 312.402-49.262 439.397-24.871 47.192-1.35 93.544-53.732 119.465-2.327 1.101-4.294 2.23-6.163 3.494l0.162-0.103c-104.014 72.243-168.367 122.285-316.452 108.124-112.414-5.28-319.932-12.961-429.947-31.621-114.994-20.281-102.364-81.393-99.754-154.086 0.044-1.629 0.184-3.184 0.416-4.708l-0.026 0.208c20.131-137.555-56.192-549.021 27.661-639.025 63.392-71.133 138.215-284.651 231.849-147.246 0.81 1.14 1.65 2.28 2.55 3.36 17.671 21.001 41.522 48.752 66.723 55.982 53.702 12.54 144.906-33.001 210.518-43.772 239.349-47.552 471.528 1.2 416.206 284.351zM945.037 138.268c-39.392-162.006-243.009-139.835-386.565-119.015-1.080 0.15-2.16 0.36-3.21 0.57-112.774 24.541-225.189 96.004-298.482-21.691-94.894-137.015-81.003 172.417-78.573 233.769 3.99 136.655 5.58 338.563 5.13 457.038 0 1.17 0 2.28 0 3.42 0 0.27 0 0.54 0 0.78 2.242 19.489 17.744 34.745 37.155 36.589l0.166 0.013c208.688 20.761 423.737 1.17 625.734 27.001 1.601 0.22 3.452 0.346 5.332 0.346 11.68 0 22.225-4.858 29.726-12.663l0.013-0.014c62.672-65.793 62.192-274.781 62.372-358.784 0-0.037 0-0.080 0-0.123 0-1.299-0.076-2.58-0.225-3.839l0.015 0.153c-7.44-78.003 15.781-157.266 1.98-240.009 0.030-1.17-0.21-2.37-0.57-3.54zM417.016 142.978q-88.383 0-148.236 62.282-59.402 62.732-59.402 156.006c-0.002 0.316-0.003 0.689-0.003 1.062 0 46.388 14.077 89.487 38.191 125.261l-0.507-0.799q37.681 57.002 105.724 92.704l5.31-7.71q-52.082-43.532-73.293-81.663-20.791-37.141-20.791-88.833 0-60.002 37.171-115.415c11.086 7.121 19.319 17.857 23.092 30.514l0.099 0.387q3 9.18 3 39.002v146.406l133.265 113.494q71.463-36.241 141.966-36.241h3l-61.832-58.892q-46.802 8.19-100.894 33.811v-343.783h9.18q36.181 0 79.653 16.891c29.825 11.674 55.543 27.153 78.146 46.211l-0.413-0.339 7.26-8.7q-77.943-121.685-199.688-121.655zM393.825 426.399q0-21.721-0.72-35.731c-0.48-9.36-1.050-16.261-1.68-20.761-0.755-5.097-1.937-9.656-3.545-14.011l0.155 0.48c-1.918-5.249-4.030-9.71-6.492-13.943l0.222 0.413c-4.904-7.918-10.242-14.791-16.217-21.050l0.046 0.049c-8.617-9.146-17.683-17.594-27.272-25.428l-0.509-0.403-27.421-23.041c29.013-33.945 70.422-56.559 117.137-60.793l0.678-0.050v349.934l-34.291-30.421zM755.099 437.98l-23.071-20.761v-196.028l30.421-24.631 48.152 43.412v177.247l-24.001 20.761 56.012 50.222 57.002-50.222-22.231-20.761v-181.057q0-38.672 18.361-38.642 5.31 0 15.001 6.75l10.14-11.58-68.253-51.722c-3.121 1.713-5.816 3.633-8.261 5.826l0.041-0.036c-6.224 4.694-11.736 9.522-16.878 14.717l-0.013 0.013c-3.97 3.947-7.348 8.483-9.994 13.468l-0.147 0.303q-6.78 14.491-6.78 40.082v7.23l-89.313-81.603q-40.532 36.241-75.333 51.662v9.24q13.051 5.31 15.961 12 3 7.74 3 35.731v166.176l-14.611 10.2-13.021-10.14-9.18 10.14 70.503 62.282z" />
<glyph unicode="&#xe92d;" glyph-name="coompact" horiz-adv-x="976" d="M968.138 281.043c-0.37 1.793-0.638 3.915-0.746 6.079l-0.004 0.101c-6.36 140.045 10.92 312.402-49.262 439.397-24.871 47.192-1.35 93.544-53.732 119.465-2.327 1.101-4.294 2.23-6.163 3.494l0.162-0.103c-104.014 72.243-168.367 122.285-316.452 108.124-112.414-5.28-319.932-12.961-429.947-31.621-114.994-20.281-102.364-81.393-99.754-154.086 0.044-1.629 0.184-3.184 0.416-4.708l-0.026 0.208c20.131-137.555-56.192-549.021 27.661-639.025 63.392-71.133 138.215-284.651 231.849-147.246 0.81 1.14 1.65 2.28 2.55 3.36 17.671 21.001 41.522 48.752 66.723 55.982 53.702 12.54 144.906-33.001 210.518-43.772 239.349-47.552 471.528 1.2 416.206 284.351zM945.037 138.268c-39.392-162.006-243.009-139.835-386.565-119.015-1.080 0.15-2.16 0.36-3.21 0.57-112.774 24.541-225.189 96.004-298.482-21.691-94.894-137.015-81.003 172.417-78.573 233.769 3.99 136.655 5.58 338.563 5.13 457.038 0 1.17 0 2.28 0 3.42 0 0.27 0 0.54 0 0.78 2.242 19.489 17.744 34.745 37.155 36.589l0.166 0.013c208.688 20.761 423.737 1.17 625.734 27.001 1.601 0.22 3.452 0.346 5.332 0.346 11.68 0 22.225-4.858 29.726-12.663l0.013-0.014c62.672-65.793 62.192-274.781 62.372-358.784 0-0.037 0-0.080 0-0.123 0-1.299-0.076-2.58-0.225-3.839l0.015 0.153c-7.44-78.003 15.781-157.266 1.98-240.009 0.030-1.17-0.21-2.37-0.57-3.54zM556.822 125.967q-99.184 0-166.417 69.933-66.693 70.473-66.693 175.087c-0.002 0.389-0.003 0.849-0.003 1.309 0 52.066 15.803 100.442 42.874 140.592l-0.569-0.895q42.302 63.992 118.715 104.104l6-8.67q-58.712-48.812-82.443-91.654-23.311-41.762-23.311-99.754 0-67.233 41.762-129.545c12.434 7.997 21.667 20.044 25.9 34.247l0.111 0.435q3.27 10.29 3.27 43.922v164.256l149.646 127.385q80.163-40.652 159.366-40.652h3.24l-69.363-66.003q-52.592 9.24-113.314 37.951v-386.115h10.29q40.682 0 89.463 18.961c33.484 13.118 62.358 30.499 87.738 51.893l-0.465-0.381 8.13-9.75q-87.333-136.655-223.929-136.655zM530.811 444.19q0-24.391-0.81-40.112t-1.89-23.311c-0.866-5.73-2.194-10.844-3.988-15.735l0.178 0.554c-2.118-5.867-4.495-10.875-7.284-15.61l0.234 0.429c-5.448-8.898-11.392-16.616-18.059-23.642l0.058 0.062c-9.68-10.264-19.872-19.743-30.655-28.527l-0.576-0.455-30.901-26.011c32.572-38.115 79.064-63.507 131.515-68.257l0.76-0.056v393.015l-38.492-34.141z" />
<glyph unicode="&#xe92e;" glyph-name="cloud-download-fill" horiz-adv-x="1150" d="M770.598 115.944l-168.967-168.967c-6.79-6.779-16.164-10.972-26.518-10.972s-19.728 4.192-26.519 10.972v0l-168.651 168.675c-5.886 5.878-9.528 14.002-9.528 22.977s3.641 17.099 9.527 22.976v0c5.799 5.81 13.816 9.405 22.673 9.405s16.874-3.595 22.672-9.404l112.865-112.865v165.681c0.014 20.046 16.267 36.291 36.315 36.291h1.339c20.048 0 36.301-16.245 36.315-36.289v-165.512l112.742 112.742c5.804 5.799 13.82 9.385 22.673 9.385s16.868-3.586 22.673-9.385v0l0.389-0.414c5.796-5.796 9.38-13.804 9.38-22.648s-3.585-16.852-9.38-22.648v0zM986.687 607.073v0c2.083 13.417 3.273 28.893 3.273 44.646 0 112.734-60.934 211.237-151.663 264.369l-1.446 0.782c-46.122 27.084-101.584 43.080-160.782 43.080-116.484 0-218.503-61.933-274.924-154.667l-0.804-1.423c-18.404 7.775-39.801 12.293-62.254 12.293-45.229 0-86.177-18.334-115.816-47.975v0c-29.627-29.585-47.954-70.479-47.954-115.654 0-6.521 0.382-12.953 1.125-19.274l-0.073 0.767c-96.41-17.038-175.247-107.485-175.247-213.582h-0.122c0-117.951 89.692-213.557 200.365-213.557l326.372 1.46v51.576h-0.998v222.32c0 27.745 22.492 50.237 50.237 50.237s50.237-22.492 50.237-50.237v-272.338h323.841c0.007 0 0.016 0 0.024 0 110.645 0 200.341 89.696 200.341 200.341v0c-0.077 97.643-69.986 178.936-162.48 196.636l-1.254 0.2z" />
<glyph unicode="&#xe92f;" glyph-name="cloud-download" horiz-adv-x="1148" d="M767.806 115.657l-168.674-168.674c-6.773-6.779-16.133-10.973-26.472-10.973s-19.7 4.194-26.472 10.973v0l-168.383 168.358c-5.864 5.873-9.491 13.981-9.491 22.937s3.627 17.064 9.491 22.937v0c5.789 5.8 13.792 9.389 22.633 9.389s16.844-3.588 22.633-9.388l112.669-112.645v443.311c0.014 20.002 16.225 36.214 36.226 36.228h1.459c20.008 0 36.228-16.22 36.228-36.228v0-443.043l112.571 112.571c5.795 5.796 13.802 9.381 22.645 9.381s16.85-3.585 22.645-9.381l0.389-0.389c5.789-5.794 9.369-13.796 9.369-22.633 0-8.886-3.619-16.927-9.464-22.728l-0.002-0.002zM247.204 570.97l1.434 44.538c-1.522 6.692-2.393 14.378-2.393 22.267 0 28.963 11.752 55.18 30.747 74.145l0.001 0.001c18.96 18.96 45.153 30.687 74.085 30.687 11.263 0 22.111-1.777 32.278-5.066l-0.741 0.207 42.375-11.371 12.149-3.426v0.146h0.486l22.305 38.609-0.34 0.34c43.912 73.234 122.871 121.49 213.102 121.49 45.634 0 88.386-12.343 125.097-33.874l-1.166 0.632c70.972-41.503 117.89-117.342 117.89-204.138 0-11.48-0.821-22.767-2.407-33.808l0.149 1.263v-0.802c0.041-0.619 0.064-1.343 0.064-2.071 0-1.394-0.085-2.767-0.25-4.116l0.016 0.162-5.516-44.999c-0.146-0.996-0.267-1.944-0.364-2.867l-0.486-3.912c0.029-1.295 0.424-2.493 1.085-3.5l-0.016 0.025c0.623-1.478 1.698-2.663 3.050-3.408l0.036-0.018c0.335-0.265 0.734-0.466 1.169-0.578l0.022-0.005c2.22-0.807 4.783-1.278 7.455-1.288h0.004l43.663-7.605c0.234-0.040 0.503-0.063 0.778-0.063s0.544 0.023 0.806 0.067l-0.028-0.004c54.986-18.782 104.285-70.050 104.285-125.060v0c0-69.257-56.144-125.4-125.4-125.4v0h-232.844v-76.926h238.627c0.007 0 0.016 0 0.024 0 110.454 0 199.994 89.54 199.994 199.994v0c-0.101 97.454-69.881 178.581-162.198 196.247l-1.252 0.199c2.079 13.394 3.267 28.843 3.267 44.569 0 112.539-60.828 210.871-151.401 263.911l-1.443 0.781c-46.042 27.037-101.408 43.005-160.504 43.005-116.282 0-218.124-61.826-274.447-154.399l-0.803-1.42c-18.372 7.761-39.732 12.271-62.146 12.271-45.151 0-86.027-18.302-115.615-47.892v0c-29.575-29.534-47.871-70.357-47.871-115.453 0-6.51 0.381-12.93 1.123-19.241l-0.073 0.766c-96.243-17.008-174.943-107.298-174.943-213.212h-0.121c0-117.746 89.537-213.188 200.018-213.188h238.627v81.98h-232.747c-69.248 0-125.4 59.845-125.4 133.637v0c0 61.813 60.258 121.245 120.541 138.983z" />
<glyph unicode="&#xe930;" glyph-name="checkmark-seal" horiz-adv-x="1021" d="M755.402 629.407l-268.009-393.531c-1.715-2.137-3.652-3.99-5.805-5.566l-0.085-0.060-1.826-1.296c-4.846-3.388-10.862-5.413-17.351-5.413-8.833 0-16.79 3.754-22.362 9.753l-0.018 0.019-173.411 196.324c-3.798 4.2-6.122 9.796-6.122 15.934 0 8.311 4.26 15.626 10.716 19.882l0.089 0.055c5.677 3.973 12.726 6.348 20.329 6.348 10.343 0 19.66-4.396 26.184-11.421l0.021-0.022 135.801-156.329c0.951-1.038 2.313-1.686 3.826-1.686 1.103 0 2.125 0.344 2.965 0.931l-0.017-0.011c0.466 0.311 0.857 0.693 1.169 1.135l0.009 0.014 242.386 355.126c9.159 12.988 28.332 16.876 42.823 8.659v0c14.255-8.659 18.142-26.006 8.688-38.847zM956.438 563.229c-17.17 17.995-34.959 36.549-41.644 53.013-6.214 14.932-6.568 39.701-6.921 63.704-0.766 44.442-1.355 95.011-36.402 130.146s-85.409 35.872-129.97 36.579c-23.915 0.353-48.624 0.707-63.527 6.921-16.257 6.744-34.782 24.563-52.718 41.792-31.513 30.306-67.208 64.617-114.773 64.617s-83.289-34.311-114.861-64.617c-17.965-17.229-36.461-35.047-52.748-41.792-14.726-6.214-39.583-6.568-63.527-6.921-44.472-0.707-94.893-1.414-129.94-36.579s-35.46-85.704-36.373-130.294c-0.353-24.003-0.736-48.772-6.921-63.704-6.715-16.316-24.474-34.871-41.674-53.013-30.217-31.395-64.44-67.238-64.44-114.949s34.223-83.495 64.44-115.067c17.2-18.024 34.959-36.579 41.674-53.013 6.185-14.932 6.568-39.701 6.921-63.704 0.677-44.59 1.414-95.158 36.461-130.294s85.409-35.872 129.94-36.549c23.944-0.383 48.624-0.736 63.527-6.951 16.228-6.715 34.782-24.533 52.748-41.762 31.484-30.306 67.179-64.793 114.861-64.793s83.259 34.34 114.861 64.793c17.936 17.229 36.461 35.047 52.718 41.762 14.902 6.214 39.612 6.568 63.527 6.951 44.501 0.677 94.893 1.414 129.97 36.549s35.754 85.704 36.461 130.294c0.353 24.003 0.707 48.772 6.921 63.704 6.685 16.287 24.474 34.871 41.644 53.013 29.952 31.543 64.293 67.356 64.293 115.067s-34.34 83.495-64.469 115.097zM903.897 383.398c-21.853-22.854-44.442-46.504-56.459-75.514-11.457-27.861-11.987-59.728-12.429-90.563-0.471-32.014-0.942-65.5-15.138-79.519s-47.358-14.726-79.519-15.168c-30.747-0.471-62.526-0.972-90.328-12.487-28.951-12.016-52.512-34.694-75.308-56.576s-46.062-44.177-64.293-44.177-41.674 22.501-64.322 44.177-46.357 44.56-75.278 56.576c-27.802 11.516-59.58 12.016-90.357 12.487-31.896 0.442-65.294 0.942-79.519 15.168s-14.726 47.476-15.138 79.519c-0.442 30.836-0.942 62.702-12.429 90.563-11.987 29.010-34.606 52.659-56.429 75.514s-44.177 46.18-44.177 64.469 22.442 41.792 44.177 64.499 44.442 46.475 56.429 75.484c11.781 27.979 12.222 59.787 12.635 90.681 0.471 31.984 0.972 65.5 15.138 79.519s47.358 14.726 79.519 15.168c30.777 0.442 62.555 0.942 90.357 12.458 28.921 12.046 52.483 34.694 75.308 56.606s46.062 44.177 64.293 44.177 41.644-22.472 64.293-44.177 46.268-44.59 75.219-56.606c27.802-11.545 59.698-12.016 90.328-12.458 31.925-0.471 65.323-0.972 79.519-15.168s14.726-47.505 15.168-79.666c0.412-30.865 0.942-62.702 12.429-90.593 11.987-29.010 34.606-52.63 56.429-75.484s44.177-46.209 44.177-64.499-22.53-41.821-44.177-64.469z" />
<glyph unicode="&#xe931;" glyph-name="checkmark-seal-fill" horiz-adv-x="1021" d="M755.402 629.407l-268.009-393.531c-1.715-2.137-3.652-3.99-5.805-5.566l-0.085-0.060-1.826-1.296c-4.846-3.388-10.862-5.413-17.351-5.413-8.833 0-16.79 3.754-22.362 9.753l-0.018 0.019-173.411 196.324c-3.798 4.2-6.122 9.796-6.122 15.934 0 8.311 4.26 15.626 10.716 19.882l0.089 0.055c5.677 3.973 12.726 6.348 20.329 6.348 10.343 0 19.66-4.396 26.184-11.421l0.021-0.022 135.801-156.329c0.951-1.038 2.313-1.686 3.826-1.686 1.103 0 2.125 0.344 2.965 0.931l-0.017-0.011c0.466 0.311 0.857 0.693 1.169 1.135l0.009 0.014 242.386 355.126c9.159 12.988 28.332 16.876 42.823 8.659v0c14.255-8.659 18.142-26.006 8.688-38.847zM956.438 563.229c-17.17 17.995-34.959 36.549-41.644 53.013-6.214 14.932-6.568 39.701-6.921 63.704-0.766 44.442-1.355 95.011-36.402 130.146s-85.409 35.872-129.97 36.579c-23.915 0.353-48.624 0.707-63.527 6.921-16.257 6.744-34.782 24.563-52.718 41.792-31.513 30.306-67.208 64.617-114.773 64.617s-83.289-34.311-114.861-64.617c-17.965-17.229-36.461-35.047-52.748-41.792-14.726-6.214-39.583-6.568-63.527-6.921-44.472-0.707-94.893-1.414-129.94-36.579s-35.46-85.704-36.373-130.294c-0.353-24.003-0.736-48.772-6.921-63.704-6.715-16.316-24.474-34.871-41.674-53.013-30.217-31.395-64.44-67.238-64.44-114.949s34.223-83.495 64.44-115.067c17.2-18.024 34.959-36.579 41.674-53.013 6.185-14.932 6.568-39.701 6.921-63.704 0.677-44.59 1.414-95.158 36.461-130.294s85.409-35.872 129.94-36.549c23.944-0.383 48.624-0.736 63.527-6.951 16.228-6.715 34.782-24.533 52.748-41.762 31.484-30.306 67.179-64.793 114.861-64.793s83.259 34.34 114.861 64.793c17.936 17.229 36.461 35.047 52.718 41.762 14.902 6.214 39.612 6.568 63.527 6.951 44.501 0.677 94.893 1.414 129.97 36.549s35.754 85.704 36.461 130.294c0.353 24.003 0.707 48.772 6.921 63.704 6.685 16.287 24.474 34.871 41.644 53.013 29.952 31.543 64.293 67.356 64.293 115.067s-34.34 83.495-64.469 115.097z" />
<glyph unicode="&#xe932;" glyph-name="checkmark-circle-fill" d="M739.456 633.152l-0.069-0.109c3.248 4.831 5.144 10.647 5.144 16.906 0 10.489-5.323 19.734-13.523 25.251l0.124-0.073c-4.69 2.972-10.252 4.693-16.215 4.693-10.78 0-20.247-5.623-25.701-14.219l-236.427-385.236c-0.291-0.47-0.663-0.883-1.109-1.228l0.009 0.007c-0.81-0.649-1.839-1.037-2.958-1.037-1.516 0-2.865 0.712-3.739 1.83l-132.597 169.669c-5.942 7.54-15.156 12.382-25.501 12.382-7.569 0-14.532-2.591-19.982-6.883l-0.059-0.045c-6.438-5.062-10.572-12.921-10.572-21.746 0-6.449 2.208-12.381 5.864-17.025l169.485-213.179c5.062-6.438 12.921-10.572 21.746-10.572 6.449 0 12.381 2.208 17.025 5.864l1.632 1.312 0.065 0.049c2.186 1.693 4.119 3.697 5.791 6.031l261.6 427.264zM1024 448c0-282.77-229.23-512-512-512s-512 229.23-512 512c0 282.77 229.23 512 512 512v0h0.288c282.646-0.164 511.712-229.331 511.712-512v0z" />
<glyph unicode="&#xe933;" glyph-name="checkmark-circle" d="M739.488 633.056l-261.6-427.264c-1.672-2.334-3.605-4.338-5.791-6.031l-0.065-0.049-1.632-1.312c-4.643-3.656-10.576-5.864-17.025-5.864-8.825 0-16.684 4.134-21.746 10.572l-0.045 0.059-169.44 213.12c-3.656 4.643-5.864 10.576-5.864 17.025 0 8.825 4.134 16.684 10.572 21.746l0.059 0.045c5.45 4.291 12.414 6.883 19.982 6.883 10.345 0 19.559-4.841 25.501-12.382l0.053-0.069 132.544-169.6c0.875-1.118 2.224-1.83 3.739-1.83 1.119 0 2.147 0.388 2.958 1.037l-0.009-0.007c0.445 0.345 0.818 0.759 1.109 1.228l0.011 0.020 236.416 385.216c5.454 8.596 14.921 14.219 25.701 14.219 5.963 0 11.525-1.721 16.215-4.693l-0.124 0.073c8.2-5.517 13.523-14.762 13.523-25.251 0-6.259-1.895-12.075-5.144-16.906l0.069 0.109zM1024 448c0-282.77-229.23-512-512-512s-512 229.23-512 512c0 282.77 229.23 512 512 512v0h0.288c282.646-0.164 511.712-229.331 511.712-512v0zM939.712 448c0 0.048 0 0.104 0 0.16 0 236.148-191.436 427.584-427.584 427.584s-427.584-191.436-427.584-427.584c0-236.103 191.363-427.511 427.449-427.584h0.327c236.016 0.091 427.319 191.405 427.392 427.417v0.007z" />
<glyph unicode="&#xe934;" glyph-name="checkmark" horiz-adv-x="1033" d="M1006.477 950.541v0c-9.15 5.889-20.322 9.389-32.311 9.389-21.304 0-40.027-11.048-50.752-27.728l-0.144-0.239-540.207-831.885-277.546 354.95c-10.149 12.909-25.766 21.124-43.302 21.124-12.801 0-24.579-4.377-33.919-11.717l0.119 0.090-7.311-5.728c-12.904-10.142-21.115-25.751-21.115-43.277 0-12.813 4.389-24.601 11.746-33.943l-0.089 0.117 331.623-424.553c10.15-12.895 25.758-21.1 43.283-21.1 12.809 0 24.594 4.383 33.937 11.731l-0.118-0.089 3.768 2.789c4.433 3.497 8.26 7.479 11.488 11.924l0.119 0.172 0.264-0.188 587.35 904.616c6.294 9.372 10.046 20.911 10.046 33.325 0 20.868-10.601 39.26-26.712 50.085l-0.216 0.137z" />
<glyph unicode="&#xe935;" glyph-name="chat-bubble-text-fill" horiz-adv-x="1100" d="M549.88 960c302.402 0 549.848-205.456 549.848-459.115s-247.446-459.147-549.848-459.147c-30.393 0-61.806-3.504-90.925 0.382-64.769 8.697-64.482-3.186-120.457-36.956-88.121-53.013-168.054-72.765-184.43-68.655-3.917 1.012-6.764 4.514-6.764 8.681 0 2.376 0.925 4.535 2.436 6.138l-0.004-0.004c82.514 88.057 85.668 129.569 78.436 154.196-6.085 20.676-39.377 42.436-54.765 57.346-38.039 37.338-77.831 66.107-111.856 116.093-46.227 68.273-61.551 157.764-61.551 221.927 0 253.658 247.446 459.115 549.88 459.115zM836.608 670.501v7.168c0 15.836-12.837 28.673-28.673 28.673v0h-508.655c-15.836 0-28.673-12.837-28.673-28.673v0-7.168c0-15.836 12.837-28.673 28.673-28.673v0h508.655c0.019 0 0.041 0 0.064 0 15.836 0 28.673 12.837 28.673 28.673 0 0 0 0 0 0v0zM836.608 497.253v7.168c0 15.836-12.837 28.673-28.673 28.673v0h-508.655c-15.836 0-28.673-12.837-28.673-28.673v0-7.168c0-15.836 12.837-28.673 28.673-28.673v0h508.655c0.019 0 0.041 0 0.064 0 15.836 0 28.673 12.837 28.673 28.673 0 0 0 0 0 0v0zM659.474 323.146v17.013c0 13.161-10.669 23.83-23.83 23.83h-341.301c0 0 0 0 0 0-13.143 0-23.798-10.655-23.798-23.798 0-0.011 0-0.022 0-0.034v0.002-17.013c0-0.009 0-0.021 0-0.032 0-13.143 10.655-23.798 23.798-23.798 0 0 0 0 0 0h341.174c0.038 0 0.083 0 0.127 0 13.161 0 23.83 10.669 23.83 23.83 0 0 0 0 0 0v0z" />
<glyph unicode="&#xe936;" glyph-name="chat-bubble-text" horiz-adv-x="1100" d="M549.88 960c302.402 0 549.848-205.456 549.848-459.115s-247.446-459.147-549.848-459.147c-30.393 0-61.806-3.504-90.925 0.382-64.769 8.697-64.482-3.186-120.457-36.956-88.121-53.013-168.054-72.765-184.43-68.655-3.917 1.012-6.764 4.514-6.764 8.681 0 2.376 0.925 4.535 2.436 6.138l-0.004-0.004c82.514 88.057 85.668 129.569 78.436 154.196-6.085 20.676-39.377 42.436-54.765 57.346-38.039 37.338-72.032 66.298-105.898 116.316-46.227 68.241-67.508 157.541-67.508 221.704 0 253.658 247.446 459.115 549.88 459.115zM555.614 892.364c-372.778 14.241-672.504-400.431-332.795-660.302 15.929-13.731 67.285-49.859 87.579-83.247 13.253-21.855-1.975-60.531 17.618-44.602 24.053 16.248 34.152 20.485 67.222 26.857 54.446 8.952 122.433-7.073 164.868-7.073 225.75 0 469.278 155.821 469.278 381.571s-248.019 386.796-473.77 386.796zM812.65 472.213h-513.37c-14.569 0-26.379 11.81-26.379 26.379v0 9.016c0 14.569 11.81 26.379 26.379 26.379v0h513.37c14.569 0 26.379-11.81 26.379-26.379v0-9.048c-0.018-14.555-11.821-26.347-26.379-26.347v0zM812.65 646.384h-513.37c-14.569 0-26.379 11.81-26.379 26.379v0 9.048c0 0.038 0 0.083 0 0.127 0 14.569 11.81 26.379 26.379 26.379 0 0 0 0 0 0h513.37c14.569 0 26.379-11.81 26.379-26.379v0-9.048c0-0.038 0-0.083 0-0.127 0-14.569-11.81-26.379-26.379-26.379 0 0 0 0 0 0v0zM639.849 305.496h-345.093c-12.070 0-21.855 9.785-21.855 21.855v0 18.096c0 12.070 9.785 21.855 21.855 21.855h345.093c12.070 0 21.855-9.785 21.855-21.855v0-18.096c0-0.009 0-0.021 0-0.032 0-12.070-9.785-21.855-21.855-21.855 0 0 0 0 0 0v0z" />
<glyph unicode="&#xe937;" glyph-name="chat-bubble-fill" horiz-adv-x="1100" d="M549.88 960c302.402 0 549.848-205.456 549.848-459.115s-247.446-459.147-549.848-459.147c-30.393 0-61.806-3.504-90.925 0.382-64.769 8.697-64.482-3.186-120.457-36.956-88.121-53.013-168.054-72.765-184.43-68.655-3.917 1.012-6.764 4.514-6.764 8.681 0 2.376 0.925 4.535 2.436 6.138l-0.004-0.004c82.514 88.057 85.668 129.569 78.436 154.196-6.085 20.676-39.377 42.436-54.765 57.346-38.039 37.338-72.032 66.298-105.898 116.316-46.227 68.241-67.508 157.541-67.508 221.704 0 253.658 247.446 459.115 549.88 459.115z" />
<glyph unicode="&#xe938;" glyph-name="chat-bubble-2-fill" horiz-adv-x="1202" d="M469.675 960c258.345 0 469.675-182.102 469.675-406.899s-211.331-406.938-469.675-406.938c-25.959 0-52.774-3.114-77.838 0.35-55.343 7.784-55.071-2.88-102.902-32.77-74.88-46.975-143.339-64.45-157.35-60.831-3.442 0.968-5.922 4.078-5.922 7.769 0 2.056 0.77 3.932 2.038 5.355l-0.007-0.008c70.482 77.838 73.207 114.811 67.019 136.645-5.215 18.331-33.626 37.635-46.703 50.984-32.381 33.042-61.414 58.612-90.331 103.097-39.503 60.325-57.678 139.486-57.678 196.347 0 224.797 211.37 406.899 469.675 406.899zM955.736 794.283c-1.909 0.867-4.14 1.372-6.49 1.372-8.856 0-16.035-7.179-16.035-16.035 0-3.544 1.15-6.819 3.096-9.473l-0.031 0.045c51.833-68.769 83.015-155.647 83.015-249.808 0-0.237 0-0.475-0.001-0.712v0.037c0-231.569-205.96-421.572-437.528-421.572-9.613 0-22.962-0.272-38.919-0.662-0.040 0-0.088 0.001-0.135 0.001-8.856 0-16.035-7.179-16.035-16.035 0-6.923 4.387-12.82 10.532-15.066l0.111-0.036c57.182-23.104 123.498-36.509 192.944-36.509 0.594 0 1.188 0.001 1.782 0.003h-0.091c25.92 0 52.774-3.114 77.838 0.311 55.304 7.784 55.071-2.88 102.902-32.731 75.231-46.975 143.534-64.489 157.506-60.869 3.376 1.010 5.795 4.089 5.795 7.732 0 2.091-0.797 3.997-2.104 5.429l0.006-0.006c-70.444 78.033-73.168 114.811-66.98 136.645 5.215 18.292 33.626 37.596 46.703 50.945 32.497 32.964 61.531 58.651 90.448 102.98 39.464 60.48 57.678 139.603 57.678 196.464-0.117 154.353-99.827 288.585-246.008 357.55z" />
</font>
</defs>
</svg>
