<svg xmlns="http://www.w3.org/2000/svg" viewBox="0 0 318.12 318.12"><defs><style>.cls-1{fill:#fff;}</style></defs><g id="Layer_2" data-name="Layer 2"><g id="Layer_1-2" data-name="Layer 1"><circle class="cls-1" cx="159.06" cy="159.06" r="159.06"/><path d="M267.12,196.63l-.2-1.42c-1.42-31.53,2.43-70.29-11.08-98.92-5.6-10.6-.33-21.07-12.08-26.88a13.57,13.57,0,0,1-1.35-.74C219,52.4,204.53,41.12,171.17,44.36c-25.32,1.22-72,2.91-96.77,7.09C48.54,56,51.4,69.75,51.92,86.16c0,.34.07.68.07,1,4.52,31-12.63,123.57,6.21,143.83,14.25,16,31.13,64.08,52.2,33.16a6.46,6.46,0,0,1,.54-.75c4-4.72,9.31-10.94,15-12.62,12.08-2.84,32.61,7.42,47.4,9.86C227.28,271.31,279.55,260.38,267.12,196.63Zm-8.61,28.16C250,259.82,206,255,175,250.54c-.26-.07-.45-.07-.71-.13-24.39-5.32-48.7-20.75-64.53,4.67-20.5,29.64-17.51-37.29-17-50.52.84-29.51,1.23-73.15,1.1-98.77v-1a9,9,0,0,1,8-7.92c45.14-4.47,91.58-.26,135.28-5.84a9,9,0,0,1,7.59,2.66c13.55,14.21,13.45,59.41,13.45,77.57a4,4,0,0,1-.06.84c-1.62,16.86,3.44,34,.45,51.86A1.39,1.39,0,0,1,258.51,224.79Z"/></g></g></svg>